<?xml version="1.0" encoding="utf-8" standalone="no"?>
<!DOCTYPE svg PUBLIC "-//W3C//DTD SVG 1.1//EN"
  "http://www.w3.org/Graphics/SVG/1.1/DTD/svg11.dtd">
<svg xmlns:xlink="http://www.w3.org/1999/xlink" width="864pt" height="432pt" viewBox="0 0 864 432" xmlns="http://www.w3.org/2000/svg" version="1.1">
 <metadata>
  <rdf:RDF xmlns:dc="http://purl.org/dc/elements/1.1/" xmlns:cc="http://creativecommons.org/ns#" xmlns:rdf="http://www.w3.org/1999/02/22-rdf-syntax-ns#">
   <cc:Work>
    <dc:type rdf:resource="http://purl.org/dc/dcmitype/StillImage"/>
    <dc:date>2023-01-19T14:48:24.709238</dc:date>
    <dc:format>image/svg+xml</dc:format>
    <dc:creator>
     <cc:Agent>
      <dc:title>Matplotlib v3.6.2, https://matplotlib.org/</dc:title>
     </cc:Agent>
    </dc:creator>
   </cc:Work>
  </rdf:RDF>
 </metadata>
 <defs>
  <style type="text/css">*{stroke-linejoin: round; stroke-linecap: butt}</style>
 </defs>
 <g id="figure_1">
  <g id="patch_1">
   <path d="M 0 432 
L 864 432 
L 864 0 
L 0 0 
z
" style="fill: #161616"/>
  </g>
  <g id="axes_1">
   <g id="patch_2">
    <path d="M 60.768834 372.506311 
L 683.7528 372.506311 
L 683.7528 29.76 
L 60.768834 29.76 
z
" style="fill: #161616"/>
   </g>
   <g id="line2d_1">
    <path d="M 60.768834 49.310404 
L 683.7528 49.310404 
" clip-path="url(#pe3b07b6f2c)" style="fill: none; stroke: #575757; stroke-width: 0.5; stroke-linecap: round"/>
   </g>
   <g id="line2d_2">
    <path d="M 60.768834 13.786157 
L 683.7528 13.786157 
" clip-path="url(#pe3b07b6f2c)" style="fill: none; stroke: #575757; stroke-width: 0.5; stroke-linecap: round"/>
   </g>
   <g id="line2d_3">
    <path clip-path="url(#pe3b07b6f2c)" style="fill: none; stroke: #575757; stroke-width: 0.5; stroke-linecap: round"/>
   </g>
   <g id="line2d_4">
    <path clip-path="url(#pe3b07b6f2c)" style="fill: none; stroke: #575757; stroke-width: 0.5; stroke-linecap: round"/>
   </g>
   <g id="line2d_5">
    <path clip-path="url(#pe3b07b6f2c)" style="fill: none; stroke: #575757; stroke-width: 0.5; stroke-linecap: round"/>
   </g>
   <g id="line2d_6">
    <path clip-path="url(#pe3b07b6f2c)" style="fill: none; stroke: #575757; stroke-width: 0.5; stroke-linecap: round"/>
   </g>
   <g id="line2d_7">
    <path clip-path="url(#pe3b07b6f2c)" style="fill: none; stroke: #575757; stroke-width: 0.5; stroke-linecap: round"/>
   </g>
   <g id="line2d_8">
    <path clip-path="url(#pe3b07b6f2c)" style="fill: none; stroke: #575757; stroke-width: 0.5; stroke-linecap: round"/>
   </g>
   <g id="line2d_9">
    <path d="M 60.768834 251.048109 
L 683.7528 251.048109 
" clip-path="url(#pe3b07b6f2c)" style="fill: none; stroke: #575757; stroke-width: 0.5; stroke-linecap: round"/>
   </g>
   <g id="line2d_10">
    <path d="M 60.768834 215.523863 
L 683.7528 215.523863 
" clip-path="url(#pe3b07b6f2c)" style="fill: none; stroke: #575757; stroke-width: 0.5; stroke-linecap: round"/>
   </g>
   <g id="line2d_11">
    <path d="M 60.768834 190.319009 
L 683.7528 190.319009 
" clip-path="url(#pe3b07b6f2c)" style="fill: none; stroke: #575757; stroke-width: 0.5; stroke-linecap: round"/>
   </g>
   <g id="line2d_12">
    <path d="M 60.768834 170.768605 
L 683.7528 170.768605 
" clip-path="url(#pe3b07b6f2c)" style="fill: none; stroke: #575757; stroke-width: 0.5; stroke-linecap: round"/>
   </g>
   <g id="line2d_13">
    <path d="M 60.768834 154.794762 
L 683.7528 154.794762 
" clip-path="url(#pe3b07b6f2c)" style="fill: none; stroke: #575757; stroke-width: 0.5; stroke-linecap: round"/>
   </g>
   <g id="line2d_14">
    <path d="M 60.768834 141.28907 
L 683.7528 141.28907 
" clip-path="url(#pe3b07b6f2c)" style="fill: none; stroke: #575757; stroke-width: 0.5; stroke-linecap: round"/>
   </g>
   <g id="line2d_15">
    <path d="M 60.768834 129.589908 
L 683.7528 129.589908 
" clip-path="url(#pe3b07b6f2c)" style="fill: none; stroke: #575757; stroke-width: 0.5; stroke-linecap: round"/>
   </g>
   <g id="line2d_16">
    <path d="M 60.768834 119.270516 
L 683.7528 119.270516 
" clip-path="url(#pe3b07b6f2c)" style="fill: none; stroke: #575757; stroke-width: 0.5; stroke-linecap: round"/>
   </g>
   <g id="line2d_17">
    <path clip-path="url(#pe3b07b6f2c)" style="fill: none; stroke: #575757; stroke-width: 0.5; stroke-linecap: round"/>
   </g>
   <g id="line2d_18">
    <path d="M 60.768834 417.261569 
L 683.7528 417.261569 
" clip-path="url(#pe3b07b6f2c)" style="fill: none; stroke: #575757; stroke-width: 0.5; stroke-linecap: round"/>
   </g>
   <g id="line2d_19">
    <path d="M 60.768834 392.056714 
L 683.7528 392.056714 
" clip-path="url(#pe3b07b6f2c)" style="fill: none; stroke: #575757; stroke-width: 0.5; stroke-linecap: round"/>
   </g>
   <g id="line2d_20">
    <path d="M 60.768834 372.506311 
L 683.7528 372.506311 
" clip-path="url(#pe3b07b6f2c)" style="fill: none; stroke: #575757; stroke-width: 0.5; stroke-linecap: round"/>
   </g>
   <g id="line2d_21">
    <path d="M 60.768834 356.532468 
L 683.7528 356.532468 
" clip-path="url(#pe3b07b6f2c)" style="fill: none; stroke: #575757; stroke-width: 0.5; stroke-linecap: round"/>
   </g>
   <g id="line2d_22">
    <path d="M 60.768834 343.026776 
L 683.7528 343.026776 
" clip-path="url(#pe3b07b6f2c)" style="fill: none; stroke: #575757; stroke-width: 0.5; stroke-linecap: round"/>
   </g>
   <g id="line2d_23">
    <path d="M 60.768834 331.327614 
L 683.7528 331.327614 
" clip-path="url(#pe3b07b6f2c)" style="fill: none; stroke: #575757; stroke-width: 0.5; stroke-linecap: round"/>
   </g>
   <g id="line2d_24">
    <path d="M 60.768834 321.008221 
L 683.7528 321.008221 
" clip-path="url(#pe3b07b6f2c)" style="fill: none; stroke: #575757; stroke-width: 0.5; stroke-linecap: round"/>
   </g>
   <g id="matplotlib.axis_1">
    <g id="xtick_1">
     <g id="line2d_25">
      <path d="M 122.437268 372.506311 
L 122.437268 29.76 
" clip-path="url(#pe3b07b6f2c)" style="fill: none; stroke: #575757; stroke-width: 0.7; stroke-linecap: round"/>
     </g>
     <g id="line2d_26"/>
     <g id="text_1">
      <!-- 2018 -->
      <g style="fill: #ffffff" transform="translate(94.076904 400.255322) rotate(-30) scale(0.14 -0.14)">
       <defs>
        <path id="ArialMT-32" d="M 3222 541 
L 3222 0 
L 194 0 
Q 188 203 259 391 
Q 375 700 629 1000 
Q 884 1300 1366 1694 
Q 2113 2306 2375 2664 
Q 2638 3022 2638 3341 
Q 2638 3675 2398 3904 
Q 2159 4134 1775 4134 
Q 1369 4134 1125 3890 
Q 881 3647 878 3216 
L 300 3275 
Q 359 3922 746 4261 
Q 1134 4600 1788 4600 
Q 2447 4600 2831 4234 
Q 3216 3869 3216 3328 
Q 3216 3053 3103 2787 
Q 2991 2522 2730 2228 
Q 2469 1934 1863 1422 
Q 1356 997 1212 845 
Q 1069 694 975 541 
L 3222 541 
z
" transform="scale(0.015625)"/>
        <path id="ArialMT-30" d="M 266 2259 
Q 266 3072 433 3567 
Q 600 4063 929 4331 
Q 1259 4600 1759 4600 
Q 2128 4600 2406 4451 
Q 2684 4303 2865 4023 
Q 3047 3744 3150 3342 
Q 3253 2941 3253 2259 
Q 3253 1453 3087 958 
Q 2922 463 2592 192 
Q 2263 -78 1759 -78 
Q 1097 -78 719 397 
Q 266 969 266 2259 
z
M 844 2259 
Q 844 1131 1108 757 
Q 1372 384 1759 384 
Q 2147 384 2411 759 
Q 2675 1134 2675 2259 
Q 2675 3391 2411 3762 
Q 2147 4134 1753 4134 
Q 1366 4134 1134 3806 
Q 844 3388 844 2259 
z
" transform="scale(0.015625)"/>
        <path id="ArialMT-31" d="M 2384 0 
L 1822 0 
L 1822 3584 
Q 1619 3391 1289 3197 
Q 959 3003 697 2906 
L 697 3450 
Q 1169 3672 1522 3987 
Q 1875 4303 2022 4600 
L 2384 4600 
L 2384 0 
z
" transform="scale(0.015625)"/>
        <path id="ArialMT-38" d="M 1131 2484 
Q 781 2613 612 2850 
Q 444 3088 444 3419 
Q 444 3919 803 4259 
Q 1163 4600 1759 4600 
Q 2359 4600 2725 4251 
Q 3091 3903 3091 3403 
Q 3091 3084 2923 2848 
Q 2756 2613 2416 2484 
Q 2838 2347 3058 2040 
Q 3278 1734 3278 1309 
Q 3278 722 2862 322 
Q 2447 -78 1769 -78 
Q 1091 -78 675 323 
Q 259 725 259 1325 
Q 259 1772 486 2073 
Q 713 2375 1131 2484 
z
M 1019 3438 
Q 1019 3113 1228 2906 
Q 1438 2700 1772 2700 
Q 2097 2700 2305 2904 
Q 2513 3109 2513 3406 
Q 2513 3716 2298 3927 
Q 2084 4138 1766 4138 
Q 1444 4138 1231 3931 
Q 1019 3725 1019 3438 
z
M 838 1322 
Q 838 1081 952 856 
Q 1066 631 1291 507 
Q 1516 384 1775 384 
Q 2178 384 2440 643 
Q 2703 903 2703 1303 
Q 2703 1709 2433 1975 
Q 2163 2241 1756 2241 
Q 1359 2241 1098 1978 
Q 838 1716 838 1322 
z
" transform="scale(0.015625)"/>
       </defs>
       <use xlink:href="#ArialMT-32"/>
       <use xlink:href="#ArialMT-30" x="55.615234"/>
       <use xlink:href="#ArialMT-31" x="111.230469"/>
       <use xlink:href="#ArialMT-38" x="166.845703"/>
      </g>
     </g>
    </g>
    <g id="xtick_2">
     <g id="line2d_27">
      <path d="M 235.15123 372.506311 
L 235.15123 29.76 
" clip-path="url(#pe3b07b6f2c)" style="fill: none; stroke: #575757; stroke-width: 0.7; stroke-linecap: round"/>
     </g>
     <g id="line2d_28"/>
     <g id="text_2">
      <!-- 2019 -->
      <g style="fill: #ffffff" transform="translate(206.790867 400.255322) rotate(-30) scale(0.14 -0.14)">
       <defs>
        <path id="ArialMT-39" d="M 350 1059 
L 891 1109 
Q 959 728 1153 556 
Q 1347 384 1650 384 
Q 1909 384 2104 503 
Q 2300 622 2425 820 
Q 2550 1019 2634 1356 
Q 2719 1694 2719 2044 
Q 2719 2081 2716 2156 
Q 2547 1888 2255 1720 
Q 1963 1553 1622 1553 
Q 1053 1553 659 1965 
Q 266 2378 266 3053 
Q 266 3750 677 4175 
Q 1088 4600 1706 4600 
Q 2153 4600 2523 4359 
Q 2894 4119 3086 3673 
Q 3278 3228 3278 2384 
Q 3278 1506 3087 986 
Q 2897 466 2520 194 
Q 2144 -78 1638 -78 
Q 1100 -78 759 220 
Q 419 519 350 1059 
z
M 2653 3081 
Q 2653 3566 2395 3850 
Q 2138 4134 1775 4134 
Q 1400 4134 1122 3828 
Q 844 3522 844 3034 
Q 844 2597 1108 2323 
Q 1372 2050 1759 2050 
Q 2150 2050 2401 2323 
Q 2653 2597 2653 3081 
z
" transform="scale(0.015625)"/>
       </defs>
       <use xlink:href="#ArialMT-32"/>
       <use xlink:href="#ArialMT-30" x="55.615234"/>
       <use xlink:href="#ArialMT-31" x="111.230469"/>
       <use xlink:href="#ArialMT-39" x="166.845703"/>
      </g>
     </g>
    </g>
    <g id="xtick_3">
     <g id="line2d_29">
      <path d="M 347.865192 372.506311 
L 347.865192 29.76 
" clip-path="url(#pe3b07b6f2c)" style="fill: none; stroke: #575757; stroke-width: 0.7; stroke-linecap: round"/>
     </g>
     <g id="line2d_30"/>
     <g id="text_3">
      <!-- 2020 -->
      <g style="fill: #ffffff" transform="translate(319.504829 400.255322) rotate(-30) scale(0.14 -0.14)">
       <use xlink:href="#ArialMT-32"/>
       <use xlink:href="#ArialMT-30" x="55.615234"/>
       <use xlink:href="#ArialMT-32" x="111.230469"/>
       <use xlink:href="#ArialMT-30" x="166.845703"/>
      </g>
     </g>
    </g>
    <g id="xtick_4">
     <g id="line2d_31">
      <path d="M 460.88796 372.506311 
L 460.88796 29.76 
" clip-path="url(#pe3b07b6f2c)" style="fill: none; stroke: #575757; stroke-width: 0.7; stroke-linecap: round"/>
     </g>
     <g id="line2d_32"/>
     <g id="text_4">
      <!-- 2021 -->
      <g style="fill: #ffffff" transform="translate(432.527597 400.255322) rotate(-30) scale(0.14 -0.14)">
       <use xlink:href="#ArialMT-32"/>
       <use xlink:href="#ArialMT-30" x="55.615234"/>
       <use xlink:href="#ArialMT-32" x="111.230469"/>
       <use xlink:href="#ArialMT-31" x="166.845703"/>
      </g>
     </g>
    </g>
    <g id="xtick_5">
     <g id="line2d_33">
      <path d="M 573.601922 372.506311 
L 573.601922 29.76 
" clip-path="url(#pe3b07b6f2c)" style="fill: none; stroke: #575757; stroke-width: 0.7; stroke-linecap: round"/>
     </g>
     <g id="line2d_34"/>
     <g id="text_5">
      <!-- 2022 -->
      <g style="fill: #ffffff" transform="translate(545.241559 400.255322) rotate(-30) scale(0.14 -0.14)">
       <use xlink:href="#ArialMT-32"/>
       <use xlink:href="#ArialMT-30" x="55.615234"/>
       <use xlink:href="#ArialMT-32" x="111.230469"/>
       <use xlink:href="#ArialMT-32" x="166.845703"/>
      </g>
     </g>
    </g>
    <g id="text_6">
     <!-- Online date -->
     <g style="fill: #ffffff" transform="translate(331.345817 418.117538) scale(0.16 -0.16)">
      <defs>
       <path id="ArialMT-4f" d="M 309 2231 
Q 309 3372 921 4017 
Q 1534 4663 2503 4663 
Q 3138 4663 3647 4359 
Q 4156 4056 4423 3514 
Q 4691 2972 4691 2284 
Q 4691 1588 4409 1038 
Q 4128 488 3612 205 
Q 3097 -78 2500 -78 
Q 1853 -78 1343 234 
Q 834 547 571 1087 
Q 309 1628 309 2231 
z
M 934 2222 
Q 934 1394 1379 917 
Q 1825 441 2497 441 
Q 3181 441 3623 922 
Q 4066 1403 4066 2288 
Q 4066 2847 3877 3264 
Q 3688 3681 3323 3911 
Q 2959 4141 2506 4141 
Q 1863 4141 1398 3698 
Q 934 3256 934 2222 
z
" transform="scale(0.015625)"/>
       <path id="ArialMT-6e" d="M 422 0 
L 422 3319 
L 928 3319 
L 928 2847 
Q 1294 3394 1984 3394 
Q 2284 3394 2536 3286 
Q 2788 3178 2913 3003 
Q 3038 2828 3088 2588 
Q 3119 2431 3119 2041 
L 3119 0 
L 2556 0 
L 2556 2019 
Q 2556 2363 2490 2533 
Q 2425 2703 2258 2804 
Q 2091 2906 1866 2906 
Q 1506 2906 1245 2678 
Q 984 2450 984 1813 
L 984 0 
L 422 0 
z
" transform="scale(0.015625)"/>
       <path id="ArialMT-6c" d="M 409 0 
L 409 4581 
L 972 4581 
L 972 0 
L 409 0 
z
" transform="scale(0.015625)"/>
       <path id="ArialMT-69" d="M 425 3934 
L 425 4581 
L 988 4581 
L 988 3934 
L 425 3934 
z
M 425 0 
L 425 3319 
L 988 3319 
L 988 0 
L 425 0 
z
" transform="scale(0.015625)"/>
       <path id="ArialMT-65" d="M 2694 1069 
L 3275 997 
Q 3138 488 2766 206 
Q 2394 -75 1816 -75 
Q 1088 -75 661 373 
Q 234 822 234 1631 
Q 234 2469 665 2931 
Q 1097 3394 1784 3394 
Q 2450 3394 2872 2941 
Q 3294 2488 3294 1666 
Q 3294 1616 3291 1516 
L 816 1516 
Q 847 969 1125 678 
Q 1403 388 1819 388 
Q 2128 388 2347 550 
Q 2566 713 2694 1069 
z
M 847 1978 
L 2700 1978 
Q 2663 2397 2488 2606 
Q 2219 2931 1791 2931 
Q 1403 2931 1139 2672 
Q 875 2413 847 1978 
z
" transform="scale(0.015625)"/>
       <path id="ArialMT-20" transform="scale(0.015625)"/>
       <path id="ArialMT-64" d="M 2575 0 
L 2575 419 
Q 2259 -75 1647 -75 
Q 1250 -75 917 144 
Q 584 363 401 755 
Q 219 1147 219 1656 
Q 219 2153 384 2558 
Q 550 2963 881 3178 
Q 1213 3394 1622 3394 
Q 1922 3394 2156 3267 
Q 2391 3141 2538 2938 
L 2538 4581 
L 3097 4581 
L 3097 0 
L 2575 0 
z
M 797 1656 
Q 797 1019 1065 703 
Q 1334 388 1700 388 
Q 2069 388 2326 689 
Q 2584 991 2584 1609 
Q 2584 2291 2321 2609 
Q 2059 2928 1675 2928 
Q 1300 2928 1048 2622 
Q 797 2316 797 1656 
z
" transform="scale(0.015625)"/>
       <path id="ArialMT-61" d="M 2588 409 
Q 2275 144 1986 34 
Q 1697 -75 1366 -75 
Q 819 -75 525 192 
Q 231 459 231 875 
Q 231 1119 342 1320 
Q 453 1522 633 1644 
Q 813 1766 1038 1828 
Q 1203 1872 1538 1913 
Q 2219 1994 2541 2106 
Q 2544 2222 2544 2253 
Q 2544 2597 2384 2738 
Q 2169 2928 1744 2928 
Q 1347 2928 1158 2789 
Q 969 2650 878 2297 
L 328 2372 
Q 403 2725 575 2942 
Q 747 3159 1072 3276 
Q 1397 3394 1825 3394 
Q 2250 3394 2515 3294 
Q 2781 3194 2906 3042 
Q 3031 2891 3081 2659 
Q 3109 2516 3109 2141 
L 3109 1391 
Q 3109 606 3145 398 
Q 3181 191 3288 0 
L 2700 0 
Q 2613 175 2588 409 
z
M 2541 1666 
Q 2234 1541 1622 1453 
Q 1275 1403 1131 1340 
Q 988 1278 909 1158 
Q 831 1038 831 891 
Q 831 666 1001 516 
Q 1172 366 1500 366 
Q 1825 366 2078 508 
Q 2331 650 2450 897 
Q 2541 1088 2541 1459 
L 2541 1666 
z
" transform="scale(0.015625)"/>
       <path id="ArialMT-74" d="M 1650 503 
L 1731 6 
Q 1494 -44 1306 -44 
Q 1000 -44 831 53 
Q 663 150 594 308 
Q 525 466 525 972 
L 525 2881 
L 113 2881 
L 113 3319 
L 525 3319 
L 525 4141 
L 1084 4478 
L 1084 3319 
L 1650 3319 
L 1650 2881 
L 1084 2881 
L 1084 941 
Q 1084 700 1114 631 
Q 1144 563 1211 522 
Q 1278 481 1403 481 
Q 1497 481 1650 503 
z
" transform="scale(0.015625)"/>
      </defs>
      <use xlink:href="#ArialMT-4f"/>
      <use xlink:href="#ArialMT-6e" x="77.783203"/>
      <use xlink:href="#ArialMT-6c" x="133.398438"/>
      <use xlink:href="#ArialMT-69" x="155.615234"/>
      <use xlink:href="#ArialMT-6e" x="177.832031"/>
      <use xlink:href="#ArialMT-65" x="233.447266"/>
      <use xlink:href="#ArialMT-20" x="289.0625"/>
      <use xlink:href="#ArialMT-64" x="316.845703"/>
      <use xlink:href="#ArialMT-61" x="372.460938"/>
      <use xlink:href="#ArialMT-74" x="428.076172"/>
      <use xlink:href="#ArialMT-65" x="455.859375"/>
     </g>
    </g>
   </g>
   <g id="matplotlib.axis_2">
    <g id="ytick_1">
     <g id="line2d_35">
      <path d="M 60.768834 311.77721 
L 683.7528 311.77721 
" clip-path="url(#pe3b07b6f2c)" style="fill: none; stroke: #575757; stroke-width: 0.7; stroke-linecap: round"/>
     </g>
     <g id="line2d_36"/>
     <g id="text_7">
      <!-- $\mathdefault{10^{-3}}$ -->
      <g style="fill: #ffffff" transform="translate(29.548834 318.99596) scale(0.14 -0.14)">
       <defs>
        <path id="ArialMT-2212" d="M 3381 1997 
L 356 1997 
L 356 2522 
L 3381 2522 
L 3381 1997 
z
" transform="scale(0.015625)"/>
        <path id="ArialMT-33" d="M 269 1209 
L 831 1284 
Q 928 806 1161 595 
Q 1394 384 1728 384 
Q 2125 384 2398 659 
Q 2672 934 2672 1341 
Q 2672 1728 2419 1979 
Q 2166 2231 1775 2231 
Q 1616 2231 1378 2169 
L 1441 2663 
Q 1497 2656 1531 2656 
Q 1891 2656 2178 2843 
Q 2466 3031 2466 3422 
Q 2466 3731 2256 3934 
Q 2047 4138 1716 4138 
Q 1388 4138 1169 3931 
Q 950 3725 888 3313 
L 325 3413 
Q 428 3978 793 4289 
Q 1159 4600 1703 4600 
Q 2078 4600 2393 4439 
Q 2709 4278 2876 4000 
Q 3044 3722 3044 3409 
Q 3044 3113 2884 2869 
Q 2725 2625 2413 2481 
Q 2819 2388 3044 2092 
Q 3269 1797 3269 1353 
Q 3269 753 2831 336 
Q 2394 -81 1725 -81 
Q 1122 -81 723 278 
Q 325 638 269 1209 
z
" transform="scale(0.015625)"/>
       </defs>
       <use xlink:href="#ArialMT-31" transform="translate(0 0.99375)"/>
       <use xlink:href="#ArialMT-30" transform="translate(55.615234 0.99375)"/>
       <use xlink:href="#ArialMT-2212" transform="translate(112.972813 70.6875) scale(0.7)"/>
       <use xlink:href="#ArialMT-33" transform="translate(153.851719 70.6875) scale(0.7)"/>
      </g>
     </g>
    </g>
    <g id="ytick_2">
     <g id="line2d_37">
      <path d="M 60.768834 110.039504 
L 683.7528 110.039504 
" clip-path="url(#pe3b07b6f2c)" style="fill: none; stroke: #575757; stroke-width: 0.7; stroke-linecap: round"/>
     </g>
     <g id="line2d_38"/>
     <g id="text_8">
      <!-- $\mathdefault{10^{-2}}$ -->
      <g style="fill: #ffffff" transform="translate(29.548834 117.258254) scale(0.14 -0.14)">
       <use xlink:href="#ArialMT-31" transform="translate(0 0.99375)"/>
       <use xlink:href="#ArialMT-30" transform="translate(55.615234 0.99375)"/>
       <use xlink:href="#ArialMT-2212" transform="translate(112.972813 70.6875) scale(0.7)"/>
       <use xlink:href="#ArialMT-32" transform="translate(153.851719 70.6875) scale(0.7)"/>
      </g>
     </g>
    </g>
    <g id="ytick_3">
     <g id="line2d_39"/>
    </g>
    <g id="ytick_4">
     <g id="line2d_40"/>
    </g>
    <g id="ytick_5">
     <g id="line2d_41"/>
    </g>
    <g id="ytick_6">
     <g id="line2d_42"/>
    </g>
    <g id="ytick_7">
     <g id="line2d_43"/>
    </g>
    <g id="ytick_8">
     <g id="line2d_44"/>
    </g>
    <g id="ytick_9">
     <g id="line2d_45"/>
    </g>
    <g id="ytick_10">
     <g id="line2d_46"/>
    </g>
    <g id="ytick_11">
     <g id="line2d_47"/>
    </g>
    <g id="ytick_12">
     <g id="line2d_48"/>
    </g>
    <g id="ytick_13">
     <g id="line2d_49"/>
    </g>
    <g id="ytick_14">
     <g id="line2d_50"/>
    </g>
    <g id="ytick_15">
     <g id="line2d_51"/>
    </g>
    <g id="ytick_16">
     <g id="line2d_52"/>
    </g>
    <g id="text_9">
     <!-- Error rate -->
     <g style="fill: #ffffff" transform="translate(22.368834 234.915655) rotate(-90) scale(0.16 -0.16)">
      <defs>
       <path id="ArialMT-45" d="M 506 0 
L 506 4581 
L 3819 4581 
L 3819 4041 
L 1113 4041 
L 1113 2638 
L 3647 2638 
L 3647 2100 
L 1113 2100 
L 1113 541 
L 3925 541 
L 3925 0 
L 506 0 
z
" transform="scale(0.015625)"/>
       <path id="ArialMT-72" d="M 416 0 
L 416 3319 
L 922 3319 
L 922 2816 
Q 1116 3169 1280 3281 
Q 1444 3394 1641 3394 
Q 1925 3394 2219 3213 
L 2025 2691 
Q 1819 2813 1613 2813 
Q 1428 2813 1281 2702 
Q 1134 2591 1072 2394 
Q 978 2094 978 1738 
L 978 0 
L 416 0 
z
" transform="scale(0.015625)"/>
       <path id="ArialMT-6f" d="M 213 1659 
Q 213 2581 725 3025 
Q 1153 3394 1769 3394 
Q 2453 3394 2887 2945 
Q 3322 2497 3322 1706 
Q 3322 1066 3130 698 
Q 2938 331 2570 128 
Q 2203 -75 1769 -75 
Q 1072 -75 642 372 
Q 213 819 213 1659 
z
M 791 1659 
Q 791 1022 1069 705 
Q 1347 388 1769 388 
Q 2188 388 2466 706 
Q 2744 1025 2744 1678 
Q 2744 2294 2464 2611 
Q 2184 2928 1769 2928 
Q 1347 2928 1069 2612 
Q 791 2297 791 1659 
z
" transform="scale(0.015625)"/>
      </defs>
      <use xlink:href="#ArialMT-45"/>
      <use xlink:href="#ArialMT-72" x="66.699219"/>
      <use xlink:href="#ArialMT-72" x="100"/>
      <use xlink:href="#ArialMT-6f" x="133.300781"/>
      <use xlink:href="#ArialMT-72" x="188.916016"/>
      <use xlink:href="#ArialMT-20" x="222.216797"/>
      <use xlink:href="#ArialMT-72" x="250"/>
      <use xlink:href="#ArialMT-61" x="283.300781"/>
      <use xlink:href="#ArialMT-74" x="338.916016"/>
      <use xlink:href="#ArialMT-65" x="366.699219"/>
     </g>
    </g>
   </g>
   <g id="line2d_53">
    <path d="M 89.086287 101.689039 
" clip-path="url(#pe3b07b6f2c)" style="fill: none"/>
    <defs>
     <path id="m8d72531f22" d="M 0 5 
C 1.326016 5 2.597899 4.473168 3.535534 3.535534 
C 4.473168 2.597899 5 1.326016 5 0 
C 5 -1.326016 4.473168 -2.597899 3.535534 -3.535534 
C 2.597899 -4.473168 1.326016 -5 0 -5 
C -1.326016 -5 -2.597899 -4.473168 -3.535534 -3.535534 
C -4.473168 -2.597899 -5 -1.326016 -5 0 
C -5 1.326016 -4.473168 2.597899 -3.535534 3.535534 
C -2.597899 4.473168 -1.326016 5 0 5 
z
" style="stroke: #00e5cc"/>
    </defs>
    <g clip-path="url(#pe3b07b6f2c)">
     <use xlink:href="#m8d72531f22" x="89.086287" y="101.689039" style="fill: #00e5cc; stroke: #00e5cc"/>
    </g>
   </g>
   <g id="line2d_54">
    <path d="M 162.273161 103.304785 
" clip-path="url(#pe3b07b6f2c)" style="fill: none"/>
    <defs>
     <path id="md9102fd8eb" d="M 0 5 
C 1.326016 5 2.597899 4.473168 3.535534 3.535534 
C 4.473168 2.597899 5 1.326016 5 0 
C 5 -1.326016 4.473168 -2.597899 3.535534 -3.535534 
C 2.597899 -4.473168 1.326016 -5 0 -5 
C -1.326016 -5 -2.597899 -4.473168 -3.535534 -3.535534 
C -4.473168 -2.597899 -5 -1.326016 -5 0 
C -5 1.326016 -4.473168 2.597899 -3.535534 3.535534 
C -2.597899 4.473168 -1.326016 5 0 5 
z
" style="stroke: #925cdd"/>
    </defs>
    <g clip-path="url(#pe3b07b6f2c)">
     <use xlink:href="#md9102fd8eb" x="162.273161" y="103.304785" style="fill: #925cdd; stroke: #925cdd"/>
    </g>
   </g>
   <g id="line2d_55">
    <path d="M 196.550558 115.569748 
" clip-path="url(#pe3b07b6f2c)" style="fill: none"/>
    <defs>
     <path id="mfc2fd113ca" d="M 0 5 
C 1.326016 5 2.597899 4.473168 3.535534 3.535534 
C 4.473168 2.597899 5 1.326016 5 0 
C 5 -1.326016 4.473168 -2.597899 3.535534 -3.535534 
C 2.597899 -4.473168 1.326016 -5 0 -5 
C -1.326016 -5 -2.597899 -4.473168 -3.535534 -3.535534 
C -4.473168 -2.597899 -5 -1.326016 -5 0 
C -5 1.326016 -4.473168 2.597899 -3.535534 3.535534 
C -2.597899 4.473168 -1.326016 5 0 5 
z
" style="stroke: #f4a67a"/>
    </defs>
    <g clip-path="url(#pe3b07b6f2c)">
     <use xlink:href="#mfc2fd113ca" x="196.550558" y="115.569748" style="fill: #f4a67a; stroke: #f4a67a"/>
    </g>
   </g>
   <g id="line2d_56">
    <path d="M 220.328572 167.924039 
" clip-path="url(#pe3b07b6f2c)" style="fill: none"/>
    <g clip-path="url(#pe3b07b6f2c)">
     <use xlink:href="#mfc2fd113ca" x="220.328572" y="167.924039" style="fill: #f4a67a; stroke: #f4a67a"/>
    </g>
   </g>
   <g id="line2d_57">
    <path d="M 304.941245 165.630402 
" clip-path="url(#pe3b07b6f2c)" style="fill: none"/>
    <defs>
     <path id="m924e3163fd" d="M 0 5 
C 1.326016 5 2.597899 4.473168 3.535534 3.535534 
C 4.473168 2.597899 5 1.326016 5 0 
C 5 -1.326016 4.473168 -2.597899 3.535534 -3.535534 
C 2.597899 -4.473168 1.326016 -5 0 -5 
C -1.326016 -5 -2.597899 -4.473168 -3.535534 -3.535534 
C -4.473168 -2.597899 -5 -1.326016 -5 0 
C -5 1.326016 -4.473168 2.597899 -3.535534 3.535534 
C -2.597899 4.473168 -1.326016 5 0 5 
z
" style="stroke: #0099e6"/>
    </defs>
    <g clip-path="url(#pe3b07b6f2c)">
     <use xlink:href="#m924e3163fd" x="304.941245" y="165.630402" style="fill: #0099e6; stroke: #0099e6"/>
    </g>
   </g>
   <g id="line2d_58">
    <path d="M 313.896601 160.776915 
" clip-path="url(#pe3b07b6f2c)" style="fill: none"/>
    <g clip-path="url(#pe3b07b6f2c)">
     <use xlink:href="#m924e3163fd" x="313.896601" y="160.776915" style="fill: #0099e6; stroke: #0099e6"/>
    </g>
   </g>
   <g id="line2d_59">
    <path d="M 313.896601 154.437735 
" clip-path="url(#pe3b07b6f2c)" style="fill: none"/>
    <g clip-path="url(#pe3b07b6f2c)">
     <use xlink:href="#m924e3163fd" x="313.896601" y="154.437735" style="fill: #0099e6; stroke: #0099e6"/>
    </g>
   </g>
   <g id="line2d_60">
    <path d="M 364.540683 129.589908 
" clip-path="url(#pe3b07b6f2c)" style="fill: none"/>
    <defs>
     <path id="m2804dbaed4" d="M 0 5 
C 1.326016 5 2.597899 4.473168 3.535534 3.535534 
C 4.473168 2.597899 5 1.326016 5 0 
C 5 -1.326016 4.473168 -2.597899 3.535534 -3.535534 
C 2.597899 -4.473168 1.326016 -5 0 -5 
C -1.326016 -5 -2.597899 -4.473168 -3.535534 -3.535534 
C -4.473168 -2.597899 -5 -1.326016 -5 0 
C -5 1.326016 -4.473168 2.597899 -3.535534 3.535534 
C -2.597899 4.473168 -1.326016 5 0 5 
z
" style="stroke: #f47aa6"/>
    </defs>
    <g clip-path="url(#pe3b07b6f2c)">
     <use xlink:href="#m2804dbaed4" x="364.540683" y="129.589908" style="fill: #f47aa6; stroke: #f47aa6"/>
    </g>
   </g>
   <g id="line2d_61">
    <path d="M 376.275287 149.140312 
" clip-path="url(#pe3b07b6f2c)" style="fill: none"/>
    <defs>
     <path id="m9428e5f947" d="M 0 5 
C 1.326016 5 2.597899 4.473168 3.535534 3.535534 
C 4.473168 2.597899 5 1.326016 5 0 
C 5 -1.326016 4.473168 -2.597899 3.535534 -3.535534 
C 2.597899 -4.473168 1.326016 -5 0 -5 
C -1.326016 -5 -2.597899 -4.473168 -3.535534 -3.535534 
C -4.473168 -2.597899 -5 -1.326016 -5 0 
C -5 1.326016 -4.473168 2.597899 -3.535534 3.535534 
C -2.597899 4.473168 -1.326016 5 0 5 
z
" style="stroke: #7ad3f4"/>
    </defs>
    <g clip-path="url(#pe3b07b6f2c)">
     <use xlink:href="#m9428e5f947" x="376.275287" y="149.140312" style="fill: #7ad3f4; stroke: #7ad3f4"/>
    </g>
   </g>
   <g id="line2d_62">
    <path d="M 395.42122 190.319009 
" clip-path="url(#pe3b07b6f2c)" style="fill: none"/>
    <g clip-path="url(#pe3b07b6f2c)">
     <use xlink:href="#m9428e5f947" x="395.42122" y="190.319009" style="fill: #7ad3f4; stroke: #7ad3f4"/>
    </g>
   </g>
   <g id="line2d_63">
    <path d="M 395.42122 186.044328 
" clip-path="url(#pe3b07b6f2c)" style="fill: none"/>
    <g clip-path="url(#pe3b07b6f2c)">
     <use xlink:href="#m9428e5f947" x="395.42122" y="186.044328" style="fill: #7ad3f4; stroke: #7ad3f4"/>
    </g>
   </g>
   <g id="line2d_64">
    <path d="M 415.49357 165.663458 
" clip-path="url(#pe3b07b6f2c)" style="fill: none"/>
    <g clip-path="url(#pe3b07b6f2c)">
     <use xlink:href="#m9428e5f947" x="415.49357" y="165.663458" style="fill: #7ad3f4; stroke: #7ad3f4"/>
    </g>
   </g>
   <g id="line2d_65">
    <path d="M 423.52251 181.968543 
" clip-path="url(#pe3b07b6f2c)" style="fill: none"/>
    <g clip-path="url(#pe3b07b6f2c)">
     <use xlink:href="#m9428e5f947" x="423.52251" y="181.968543" style="fill: #7ad3f4; stroke: #7ad3f4"/>
    </g>
   </g>
   <g id="line2d_66">
    <path d="M 453.785436 162.41814 
" clip-path="url(#pe3b07b6f2c)" style="fill: none"/>
    <g clip-path="url(#pe3b07b6f2c)">
     <use xlink:href="#m9428e5f947" x="453.785436" y="162.41814" style="fill: #7ad3f4; stroke: #7ad3f4"/>
    </g>
   </g>
   <g id="line2d_67">
    <path d="M 445.756497 199.818138 
" clip-path="url(#pe3b07b6f2c)" style="fill: none"/>
    <defs>
     <path id="m919e69454b" d="M 0 5 
C 1.326016 5 2.597899 4.473168 3.535534 3.535534 
C 4.473168 2.597899 5 1.326016 5 0 
C 5 -1.326016 4.473168 -2.597899 3.535534 -3.535534 
C 2.597899 -4.473168 1.326016 -5 0 -5 
C -1.326016 -5 -2.597899 -4.473168 -3.535534 -3.535534 
C -4.473168 -2.597899 -5 -1.326016 -5 0 
C -5 1.326016 -4.473168 2.597899 -3.535534 3.535534 
C -2.597899 4.473168 -1.326016 5 0 5 
z
" style="stroke: #ef5c3b"/>
    </defs>
    <g clip-path="url(#pe3b07b6f2c)">
     <use xlink:href="#m919e69454b" x="445.756497" y="199.818138" style="fill: #ef5c3b; stroke: #ef5c3b"/>
    </g>
   </g>
   <g id="line2d_68">
    <path d="M 445.756497 216.996394 
" clip-path="url(#pe3b07b6f2c)" style="fill: none"/>
    <g clip-path="url(#pe3b07b6f2c)">
     <use xlink:href="#m919e69454b" x="445.756497" y="216.996394" style="fill: #ef5c3b; stroke: #ef5c3b"/>
    </g>
   </g>
   <g id="line2d_69">
    <path d="M 464.90243 229.419816 
" clip-path="url(#pe3b07b6f2c)" style="fill: none"/>
    <g clip-path="url(#pe3b07b6f2c)">
     <use xlink:href="#m919e69454b" x="464.90243" y="229.419816" style="fill: #ef5c3b; stroke: #ef5c3b"/>
    </g>
   </g>
   <g id="line2d_70">
    <path d="M 530.677975 236.546798 
" clip-path="url(#pe3b07b6f2c)" style="fill: none"/>
    <g clip-path="url(#pe3b07b6f2c)">
     <use xlink:href="#m919e69454b" x="530.677975" y="236.546798" style="fill: #ef5c3b; stroke: #ef5c3b"/>
    </g>
   </g>
   <g id="line2d_71">
    <path d="M 530.677975 202.520256 
" clip-path="url(#pe3b07b6f2c)" style="fill: none"/>
    <g clip-path="url(#pe3b07b6f2c)">
     <use xlink:href="#m919e69454b" x="530.677975" y="202.520256" style="fill: #ef5c3b; stroke: #ef5c3b"/>
    </g>
   </g>
   <g id="line2d_72">
    <path d="M 523.266646 229.57396 
" clip-path="url(#pe3b07b6f2c)" style="fill: none"/>
    <g clip-path="url(#pe3b07b6f2c)">
     <use xlink:href="#m919e69454b" x="523.266646" y="229.57396" style="fill: #ef5c3b; stroke: #ef5c3b"/>
    </g>
   </g>
   <g id="line2d_73">
    <path d="M 485.901196 228.061439 
" clip-path="url(#pe3b07b6f2c)" style="fill: none"/>
    <defs>
     <path id="ma0802c5788" d="M 0 -5 
L -5 5 
L 5 5 
z
" style="stroke: #00e5cc; stroke-linejoin: miter"/>
    </defs>
    <g clip-path="url(#pe3b07b6f2c)">
     <use xlink:href="#ma0802c5788" x="485.901196" y="228.061439" style="fill: #00e5cc; stroke: #00e5cc; stroke-linejoin: miter"/>
    </g>
   </g>
   <g id="line2d_74">
    <path d="M 539.942136 248.034078 
" clip-path="url(#pe3b07b6f2c)" style="fill: none"/>
    <defs>
     <path id="m9a217bcd13" d="M 0 -5 
L -5 5 
L 5 5 
z
" style="stroke: #925cdd; stroke-linejoin: miter"/>
    </defs>
    <g clip-path="url(#pe3b07b6f2c)">
     <use xlink:href="#m9a217bcd13" x="539.942136" y="248.034078" style="fill: #925cdd; stroke: #925cdd; stroke-linejoin: miter"/>
    </g>
   </g>
   <g id="line2d_75">
    <path d="M 599.232769 262.248048 
" clip-path="url(#pe3b07b6f2c)" style="fill: none"/>
    <g clip-path="url(#pe3b07b6f2c)">
     <use xlink:href="#m9a217bcd13" x="599.232769" y="262.248048" style="fill: #925cdd; stroke: #925cdd; stroke-linejoin: miter"/>
    </g>
   </g>
   <g id="line2d_76">
    <path d="M 601.394406 311.77721 
" clip-path="url(#pe3b07b6f2c)" style="fill: none"/>
    <defs>
     <path id="m9df955e08c" d="M 0 -5 
L -5 5 
L 5 5 
z
" style="stroke: #f4a67a; stroke-linejoin: miter"/>
    </defs>
    <g clip-path="url(#pe3b07b6f2c)">
     <use xlink:href="#m9df955e08c" x="601.394406" y="311.77721" style="fill: #f4a67a; stroke: #f4a67a; stroke-linejoin: miter"/>
    </g>
   </g>
   <g id="line2d_77">
    <path d="M 324.087179 70.519158 
" clip-path="url(#pe3b07b6f2c)" style="fill: none"/>
    <defs>
     <path id="ma104a724bb" d="M 0 -5 
L -5 5 
L 5 5 
z
" style="stroke: #0099e6; stroke-linejoin: miter"/>
    </defs>
    <g clip-path="url(#pe3b07b6f2c)">
     <use xlink:href="#ma104a724bb" x="324.087179" y="70.519158" style="fill: #0099e6; stroke: #0099e6; stroke-linejoin: miter"/>
    </g>
   </g>
   <g id="line2d_78">
    <path d="M 411.170295 150.520082 
" clip-path="url(#pe3b07b6f2c)" style="fill: none"/>
    <defs>
     <path id="m4377443761" d="M 0 -5 
L -5 5 
L 5 5 
z
" style="stroke: #f47aa6; stroke-linejoin: miter"/>
    </defs>
    <g clip-path="url(#pe3b07b6f2c)">
     <use xlink:href="#m4377443761" x="411.170295" y="150.520082" style="fill: #f47aa6; stroke: #f47aa6; stroke-linejoin: miter"/>
    </g>
   </g>
   <g id="line2d_79">
    <path d="M 480.033893 164.025773 
" clip-path="url(#pe3b07b6f2c)" style="fill: none"/>
    <g clip-path="url(#pe3b07b6f2c)">
     <use xlink:href="#m4377443761" x="480.033893" y="164.025773" style="fill: #f47aa6; stroke: #f47aa6; stroke-linejoin: miter"/>
    </g>
   </g>
   <g id="line2d_80">
    <path d="M 546.427049 226.723801 
" clip-path="url(#pe3b07b6f2c)" style="fill: none"/>
    <defs>
     <path id="md0e765dc7a" d="M 0 -5 
L -5 5 
L 5 5 
z
" style="stroke: #7ad3f4; stroke-linejoin: miter"/>
    </defs>
    <g clip-path="url(#pe3b07b6f2c)">
     <use xlink:href="#md0e765dc7a" x="546.427049" y="226.723801" style="fill: #7ad3f4; stroke: #7ad3f4; stroke-linejoin: miter"/>
    </g>
   </g>
   <g id="line2d_81">
    <path d="M 540.559747 176.376341 
" clip-path="url(#pe3b07b6f2c)" style="fill: none"/>
    <defs>
     <path id="m745c4e3dbd" d="M 0 -5 
L -5 5 
L 5 5 
z
" style="stroke: #ef5c3b; stroke-linejoin: miter"/>
    </defs>
    <g clip-path="url(#pe3b07b6f2c)">
     <use xlink:href="#m745c4e3dbd" x="540.559747" y="176.376341" style="fill: #ef5c3b; stroke: #ef5c3b; stroke-linejoin: miter"/>
    </g>
   </g>
   <g id="line2d_82">
    <path d="M 604.791265 217.293894 
" clip-path="url(#pe3b07b6f2c)" style="fill: none"/>
    <defs>
     <path id="m305738bdeb" d="M 0 -5 
L -1.12257 -1.545085 
L -4.755283 -1.545085 
L -1.816356 0.59017 
L -2.938926 4.045085 
L -0 1.90983 
L 2.938926 4.045085 
L 1.816356 0.59017 
L 4.755283 -1.545085 
L 1.12257 -1.545085 
z
" style="stroke: #00e5cc; stroke-linejoin: bevel"/>
    </defs>
    <g clip-path="url(#pe3b07b6f2c)">
     <use xlink:href="#m305738bdeb" x="604.791265" y="217.293894" style="fill: #00e5cc; stroke: #00e5cc; stroke-linejoin: bevel"/>
    </g>
   </g>
   <g id="line2d_83">
    <path d="M 655.435347 250.176325 
" clip-path="url(#pe3b07b6f2c)" style="fill: none"/>
    <g clip-path="url(#pe3b07b6f2c)">
     <use xlink:href="#m305738bdeb" x="655.435347" y="250.176325" style="fill: #00e5cc; stroke: #00e5cc; stroke-linejoin: bevel"/>
    </g>
   </g>
   <g id="patch_3">
    <path d="M 60.768834 372.506311 
L 60.768834 29.76 
" style="fill: none; stroke: #161616; stroke-width: 3; stroke-linejoin: miter; stroke-linecap: square"/>
   </g>
   <g id="patch_4">
    <path d="M 683.7528 372.506311 
L 683.7528 29.76 
" style="fill: none; stroke: #161616; stroke-width: 3; stroke-linejoin: miter; stroke-linecap: square"/>
   </g>
   <g id="patch_5">
    <path d="M 60.768834 372.506311 
L 683.7528 372.506311 
" style="fill: none; stroke: #161616; stroke-width: 3; stroke-linejoin: miter; stroke-linecap: square"/>
   </g>
   <g id="patch_6">
    <path d="M 60.768834 29.76 
L 683.7528 29.76 
" style="fill: none; stroke: #161616; stroke-width: 3; stroke-linejoin: miter; stroke-linecap: square"/>
   </g>
   <g id="text_10">
    <!-- Austin -->
    <g style="fill: #ffffff" transform="translate(89.709336 98.515456) scale(0.11 -0.11)">
     <defs>
      <path id="ArialMT-41" d="M -9 0 
L 1750 4581 
L 2403 4581 
L 4278 0 
L 3588 0 
L 3053 1388 
L 1138 1388 
L 634 0 
L -9 0 
z
M 1313 1881 
L 2866 1881 
L 2388 3150 
Q 2169 3728 2063 4100 
Q 1975 3659 1816 3225 
L 1313 1881 
z
" transform="scale(0.015625)"/>
      <path id="ArialMT-75" d="M 2597 0 
L 2597 488 
Q 2209 -75 1544 -75 
Q 1250 -75 995 37 
Q 741 150 617 320 
Q 494 491 444 738 
Q 409 903 409 1263 
L 409 3319 
L 972 3319 
L 972 1478 
Q 972 1038 1006 884 
Q 1059 663 1231 536 
Q 1403 409 1656 409 
Q 1909 409 2131 539 
Q 2353 669 2445 892 
Q 2538 1116 2538 1541 
L 2538 3319 
L 3100 3319 
L 3100 0 
L 2597 0 
z
" transform="scale(0.015625)"/>
      <path id="ArialMT-73" d="M 197 991 
L 753 1078 
Q 800 744 1014 566 
Q 1228 388 1613 388 
Q 2000 388 2187 545 
Q 2375 703 2375 916 
Q 2375 1106 2209 1216 
Q 2094 1291 1634 1406 
Q 1016 1563 777 1677 
Q 538 1791 414 1992 
Q 291 2194 291 2438 
Q 291 2659 392 2848 
Q 494 3038 669 3163 
Q 800 3259 1026 3326 
Q 1253 3394 1513 3394 
Q 1903 3394 2198 3281 
Q 2494 3169 2634 2976 
Q 2775 2784 2828 2463 
L 2278 2388 
Q 2241 2644 2061 2787 
Q 1881 2931 1553 2931 
Q 1166 2931 1000 2803 
Q 834 2675 834 2503 
Q 834 2394 903 2306 
Q 972 2216 1119 2156 
Q 1203 2125 1616 2013 
Q 2213 1853 2448 1751 
Q 2684 1650 2818 1456 
Q 2953 1263 2953 975 
Q 2953 694 2789 445 
Q 2625 197 2315 61 
Q 2006 -75 1616 -75 
Q 969 -75 630 194 
Q 291 463 197 991 
z
" transform="scale(0.015625)"/>
     </defs>
     <use xlink:href="#ArialMT-41"/>
     <use xlink:href="#ArialMT-75" x="66.699219"/>
     <use xlink:href="#ArialMT-73" x="122.314453"/>
     <use xlink:href="#ArialMT-74" x="172.314453"/>
     <use xlink:href="#ArialMT-69" x="200.097656"/>
     <use xlink:href="#ArialMT-6e" x="222.314453"/>
    </g>
   </g>
   <g id="text_11">
    <!-- Tokyo -->
    <g style="fill: #ffffff" transform="translate(162.857614 100.002296) scale(0.11 -0.11)">
     <defs>
      <path id="ArialMT-54" d="M 1659 0 
L 1659 4041 
L 150 4041 
L 150 4581 
L 3781 4581 
L 3781 4041 
L 2266 4041 
L 2266 0 
L 1659 0 
z
" transform="scale(0.015625)"/>
      <path id="ArialMT-6b" d="M 425 0 
L 425 4581 
L 988 4581 
L 988 1969 
L 2319 3319 
L 3047 3319 
L 1778 2088 
L 3175 0 
L 2481 0 
L 1384 1697 
L 988 1316 
L 988 0 
L 425 0 
z
" transform="scale(0.015625)"/>
      <path id="ArialMT-79" d="M 397 -1278 
L 334 -750 
Q 519 -800 656 -800 
Q 844 -800 956 -737 
Q 1069 -675 1141 -563 
Q 1194 -478 1313 -144 
Q 1328 -97 1363 -6 
L 103 3319 
L 709 3319 
L 1400 1397 
Q 1534 1031 1641 628 
Q 1738 1016 1872 1384 
L 2581 3319 
L 3144 3319 
L 1881 -56 
Q 1678 -603 1566 -809 
Q 1416 -1088 1222 -1217 
Q 1028 -1347 759 -1347 
Q 597 -1347 397 -1278 
z
" transform="scale(0.015625)"/>
     </defs>
     <use xlink:href="#ArialMT-54"/>
     <use xlink:href="#ArialMT-6f" x="49.958984"/>
     <use xlink:href="#ArialMT-6b" x="105.574219"/>
     <use xlink:href="#ArialMT-79" x="155.574219"/>
     <use xlink:href="#ArialMT-6f" x="205.574219"/>
    </g>
   </g>
   <g id="text_12">
    <!-- Poughkeepsie -->
    <g style="fill: #ffffff" transform="translate(197.974931 112.267259) scale(0.11 -0.11)">
     <defs>
      <path id="ArialMT-50" d="M 494 0 
L 494 4581 
L 2222 4581 
Q 2678 4581 2919 4538 
Q 3256 4481 3484 4323 
Q 3713 4166 3852 3881 
Q 3991 3597 3991 3256 
Q 3991 2672 3619 2267 
Q 3247 1863 2275 1863 
L 1100 1863 
L 1100 0 
L 494 0 
z
M 1100 2403 
L 2284 2403 
Q 2872 2403 3119 2622 
Q 3366 2841 3366 3238 
Q 3366 3525 3220 3729 
Q 3075 3934 2838 4000 
Q 2684 4041 2272 4041 
L 1100 4041 
L 1100 2403 
z
" transform="scale(0.015625)"/>
      <path id="ArialMT-67" d="M 319 -275 
L 866 -356 
Q 900 -609 1056 -725 
Q 1266 -881 1628 -881 
Q 2019 -881 2231 -725 
Q 2444 -569 2519 -288 
Q 2563 -116 2559 434 
Q 2191 0 1641 0 
Q 956 0 581 494 
Q 206 988 206 1678 
Q 206 2153 378 2554 
Q 550 2956 876 3175 
Q 1203 3394 1644 3394 
Q 2231 3394 2613 2919 
L 2613 3319 
L 3131 3319 
L 3131 450 
Q 3131 -325 2973 -648 
Q 2816 -972 2473 -1159 
Q 2131 -1347 1631 -1347 
Q 1038 -1347 672 -1080 
Q 306 -813 319 -275 
z
M 784 1719 
Q 784 1066 1043 766 
Q 1303 466 1694 466 
Q 2081 466 2343 764 
Q 2606 1063 2606 1700 
Q 2606 2309 2336 2618 
Q 2066 2928 1684 2928 
Q 1309 2928 1046 2623 
Q 784 2319 784 1719 
z
" transform="scale(0.015625)"/>
      <path id="ArialMT-68" d="M 422 0 
L 422 4581 
L 984 4581 
L 984 2938 
Q 1378 3394 1978 3394 
Q 2347 3394 2619 3248 
Q 2891 3103 3008 2847 
Q 3125 2591 3125 2103 
L 3125 0 
L 2563 0 
L 2563 2103 
Q 2563 2525 2380 2717 
Q 2197 2909 1863 2909 
Q 1613 2909 1392 2779 
Q 1172 2650 1078 2428 
Q 984 2206 984 1816 
L 984 0 
L 422 0 
z
" transform="scale(0.015625)"/>
      <path id="ArialMT-70" d="M 422 -1272 
L 422 3319 
L 934 3319 
L 934 2888 
Q 1116 3141 1344 3267 
Q 1572 3394 1897 3394 
Q 2322 3394 2647 3175 
Q 2972 2956 3137 2557 
Q 3303 2159 3303 1684 
Q 3303 1175 3120 767 
Q 2938 359 2589 142 
Q 2241 -75 1856 -75 
Q 1575 -75 1351 44 
Q 1128 163 984 344 
L 984 -1272 
L 422 -1272 
z
M 931 1641 
Q 931 1000 1190 694 
Q 1450 388 1819 388 
Q 2194 388 2461 705 
Q 2728 1022 2728 1688 
Q 2728 2322 2467 2637 
Q 2206 2953 1844 2953 
Q 1484 2953 1207 2617 
Q 931 2281 931 1641 
z
" transform="scale(0.015625)"/>
     </defs>
     <use xlink:href="#ArialMT-50"/>
     <use xlink:href="#ArialMT-6f" x="66.699219"/>
     <use xlink:href="#ArialMT-75" x="122.314453"/>
     <use xlink:href="#ArialMT-67" x="177.929688"/>
     <use xlink:href="#ArialMT-68" x="233.544922"/>
     <use xlink:href="#ArialMT-6b" x="289.160156"/>
     <use xlink:href="#ArialMT-65" x="339.160156"/>
     <use xlink:href="#ArialMT-65" x="394.775391"/>
     <use xlink:href="#ArialMT-70" x="450.390625"/>
     <use xlink:href="#ArialMT-73" x="506.005859"/>
     <use xlink:href="#ArialMT-69" x="556.005859"/>
     <use xlink:href="#ArialMT-65" x="578.222656"/>
    </g>
   </g>
   <g id="text_13">
    <!-- Johannesburg -->
    <g style="fill: #ffffff" transform="translate(221.752945 164.62155) scale(0.11 -0.11)">
     <defs>
      <path id="ArialMT-4a" d="M 184 1300 
L 731 1375 
Q 753 850 928 656 
Q 1103 463 1413 463 
Q 1641 463 1806 567 
Q 1972 672 2034 851 
Q 2097 1031 2097 1425 
L 2097 4581 
L 2703 4581 
L 2703 1459 
Q 2703 884 2564 568 
Q 2425 253 2123 87 
Q 1822 -78 1416 -78 
Q 813 -78 492 269 
Q 172 616 184 1300 
z
" transform="scale(0.015625)"/>
      <path id="ArialMT-62" d="M 941 0 
L 419 0 
L 419 4581 
L 981 4581 
L 981 2947 
Q 1338 3394 1891 3394 
Q 2197 3394 2470 3270 
Q 2744 3147 2920 2923 
Q 3097 2700 3197 2384 
Q 3297 2069 3297 1709 
Q 3297 856 2875 390 
Q 2453 -75 1863 -75 
Q 1275 -75 941 416 
L 941 0 
z
M 934 1684 
Q 934 1088 1097 822 
Q 1363 388 1816 388 
Q 2184 388 2453 708 
Q 2722 1028 2722 1663 
Q 2722 2313 2464 2622 
Q 2206 2931 1841 2931 
Q 1472 2931 1203 2611 
Q 934 2291 934 1684 
z
" transform="scale(0.015625)"/>
     </defs>
     <use xlink:href="#ArialMT-4a"/>
     <use xlink:href="#ArialMT-6f" x="50"/>
     <use xlink:href="#ArialMT-68" x="105.615234"/>
     <use xlink:href="#ArialMT-61" x="161.230469"/>
     <use xlink:href="#ArialMT-6e" x="216.845703"/>
     <use xlink:href="#ArialMT-6e" x="272.460938"/>
     <use xlink:href="#ArialMT-65" x="328.076172"/>
     <use xlink:href="#ArialMT-73" x="383.691406"/>
     <use xlink:href="#ArialMT-62" x="433.691406"/>
     <use xlink:href="#ArialMT-75" x="489.306641"/>
     <use xlink:href="#ArialMT-72" x="544.921875"/>
     <use xlink:href="#ArialMT-67" x="578.222656"/>
    </g>
   </g>
   <g id="text_14">
    <!-- Boeblingen -->
    <g style="fill: #ffffff" transform="translate(280.62508 174.520563) scale(0.11 -0.11)">
     <defs>
      <path id="ArialMT-42" d="M 469 0 
L 469 4581 
L 2188 4581 
Q 2713 4581 3030 4442 
Q 3347 4303 3526 4014 
Q 3706 3725 3706 3409 
Q 3706 3116 3547 2856 
Q 3388 2597 3066 2438 
Q 3481 2316 3704 2022 
Q 3928 1728 3928 1328 
Q 3928 1006 3792 729 
Q 3656 453 3456 303 
Q 3256 153 2954 76 
Q 2653 0 2216 0 
L 469 0 
z
M 1075 2656 
L 2066 2656 
Q 2469 2656 2644 2709 
Q 2875 2778 2992 2937 
Q 3109 3097 3109 3338 
Q 3109 3566 3000 3739 
Q 2891 3913 2687 3977 
Q 2484 4041 1991 4041 
L 1075 4041 
L 1075 2656 
z
M 1075 541 
L 2216 541 
Q 2509 541 2628 563 
Q 2838 600 2978 687 
Q 3119 775 3209 942 
Q 3300 1109 3300 1328 
Q 3300 1584 3169 1773 
Q 3038 1963 2805 2039 
Q 2572 2116 2134 2116 
L 1075 2116 
L 1075 541 
z
" transform="scale(0.015625)"/>
     </defs>
     <use xlink:href="#ArialMT-42"/>
     <use xlink:href="#ArialMT-6f" x="66.699219"/>
     <use xlink:href="#ArialMT-65" x="122.314453"/>
     <use xlink:href="#ArialMT-62" x="177.929688"/>
     <use xlink:href="#ArialMT-6c" x="233.544922"/>
     <use xlink:href="#ArialMT-69" x="255.761719"/>
     <use xlink:href="#ArialMT-6e" x="277.978516"/>
     <use xlink:href="#ArialMT-67" x="333.59375"/>
     <use xlink:href="#ArialMT-65" x="389.208984"/>
     <use xlink:href="#ArialMT-6e" x="444.824219"/>
    </g>
   </g>
   <g id="text_15">
    <!-- Almaden -->
    <g style="fill: #ffffff" transform="translate(315.864987 160.479515) scale(0.11 -0.11)">
     <defs>
      <path id="ArialMT-6d" d="M 422 0 
L 422 3319 
L 925 3319 
L 925 2853 
Q 1081 3097 1340 3245 
Q 1600 3394 1931 3394 
Q 2300 3394 2536 3241 
Q 2772 3088 2869 2813 
Q 3263 3394 3894 3394 
Q 4388 3394 4653 3120 
Q 4919 2847 4919 2278 
L 4919 0 
L 4359 0 
L 4359 2091 
Q 4359 2428 4304 2576 
Q 4250 2725 4106 2815 
Q 3963 2906 3769 2906 
Q 3419 2906 3187 2673 
Q 2956 2441 2956 1928 
L 2956 0 
L 2394 0 
L 2394 2156 
Q 2394 2531 2256 2718 
Q 2119 2906 1806 2906 
Q 1569 2906 1367 2781 
Q 1166 2656 1075 2415 
Q 984 2175 984 1722 
L 984 0 
L 422 0 
z
" transform="scale(0.015625)"/>
     </defs>
     <use xlink:href="#ArialMT-41"/>
     <use xlink:href="#ArialMT-6c" x="66.699219"/>
     <use xlink:href="#ArialMT-6d" x="88.916016"/>
     <use xlink:href="#ArialMT-61" x="172.216797"/>
     <use xlink:href="#ArialMT-64" x="227.832031"/>
     <use xlink:href="#ArialMT-65" x="283.447266"/>
     <use xlink:href="#ArialMT-6e" x="339.0625"/>
    </g>
   </g>
   <g id="text_16">
    <!-- Singapore -->
    <g style="fill: #ffffff" transform="translate(262.72315 151.135246) scale(0.11 -0.11)">
     <defs>
      <path id="ArialMT-53" d="M 288 1472 
L 859 1522 
Q 900 1178 1048 958 
Q 1197 738 1509 602 
Q 1822 466 2213 466 
Q 2559 466 2825 569 
Q 3091 672 3220 851 
Q 3350 1031 3350 1244 
Q 3350 1459 3225 1620 
Q 3100 1781 2813 1891 
Q 2628 1963 1997 2114 
Q 1366 2266 1113 2400 
Q 784 2572 623 2826 
Q 463 3081 463 3397 
Q 463 3744 659 4045 
Q 856 4347 1234 4503 
Q 1613 4659 2075 4659 
Q 2584 4659 2973 4495 
Q 3363 4331 3572 4012 
Q 3781 3694 3797 3291 
L 3216 3247 
Q 3169 3681 2898 3903 
Q 2628 4125 2100 4125 
Q 1550 4125 1298 3923 
Q 1047 3722 1047 3438 
Q 1047 3191 1225 3031 
Q 1400 2872 2139 2705 
Q 2878 2538 3153 2413 
Q 3553 2228 3743 1945 
Q 3934 1663 3934 1294 
Q 3934 928 3725 604 
Q 3516 281 3123 101 
Q 2731 -78 2241 -78 
Q 1619 -78 1198 103 
Q 778 284 539 648 
Q 300 1013 288 1472 
z
" transform="scale(0.015625)"/>
     </defs>
     <use xlink:href="#ArialMT-53"/>
     <use xlink:href="#ArialMT-69" x="66.699219"/>
     <use xlink:href="#ArialMT-6e" x="88.916016"/>
     <use xlink:href="#ArialMT-67" x="144.53125"/>
     <use xlink:href="#ArialMT-61" x="200.146484"/>
     <use xlink:href="#ArialMT-70" x="255.761719"/>
     <use xlink:href="#ArialMT-6f" x="311.376953"/>
     <use xlink:href="#ArialMT-72" x="366.992188"/>
     <use xlink:href="#ArialMT-65" x="400.292969"/>
    </g>
   </g>
   <g id="text_17">
    <!-- Cambridge -->
    <g style="fill: #ffffff" transform="translate(365.637909 126.287419) scale(0.11 -0.11)">
     <defs>
      <path id="ArialMT-43" d="M 3763 1606 
L 4369 1453 
Q 4178 706 3683 314 
Q 3188 -78 2472 -78 
Q 1731 -78 1267 223 
Q 803 525 561 1097 
Q 319 1669 319 2325 
Q 319 3041 592 3573 
Q 866 4106 1370 4382 
Q 1875 4659 2481 4659 
Q 3169 4659 3637 4309 
Q 4106 3959 4291 3325 
L 3694 3184 
Q 3534 3684 3231 3912 
Q 2928 4141 2469 4141 
Q 1941 4141 1586 3887 
Q 1231 3634 1087 3207 
Q 944 2781 944 2328 
Q 944 1744 1114 1308 
Q 1284 872 1643 656 
Q 2003 441 2422 441 
Q 2931 441 3284 734 
Q 3638 1028 3763 1606 
z
" transform="scale(0.015625)"/>
     </defs>
     <use xlink:href="#ArialMT-43"/>
     <use xlink:href="#ArialMT-61" x="72.216797"/>
     <use xlink:href="#ArialMT-6d" x="127.832031"/>
     <use xlink:href="#ArialMT-62" x="211.132812"/>
     <use xlink:href="#ArialMT-72" x="266.748047"/>
     <use xlink:href="#ArialMT-69" x="300.048828"/>
     <use xlink:href="#ArialMT-64" x="322.265625"/>
     <use xlink:href="#ArialMT-67" x="377.880859"/>
     <use xlink:href="#ArialMT-65" x="433.496094"/>
    </g>
   </g>
   <g id="text_18">
    <!-- Paris -->
    <g style="fill: #ffffff" transform="translate(376.788061 145.966729) scale(0.11 -0.11)">
     <use xlink:href="#ArialMT-50"/>
     <use xlink:href="#ArialMT-61" x="66.699219"/>
     <use xlink:href="#ArialMT-72" x="122.314453"/>
     <use xlink:href="#ArialMT-69" x="155.615234"/>
     <use xlink:href="#ArialMT-73" x="177.832031"/>
    </g>
   </g>
   <g id="text_19">
    <!-- Montreal -->
    <g style="fill: #ffffff" transform="translate(396.294223 199.179936) scale(0.11 -0.11)">
     <defs>
      <path id="ArialMT-4d" d="M 475 0 
L 475 4581 
L 1388 4581 
L 2472 1338 
Q 2622 884 2691 659 
Q 2769 909 2934 1394 
L 4031 4581 
L 4847 4581 
L 4847 0 
L 4263 0 
L 4263 3834 
L 2931 0 
L 2384 0 
L 1059 3900 
L 1059 0 
L 475 0 
z
" transform="scale(0.015625)"/>
     </defs>
     <use xlink:href="#ArialMT-4d"/>
     <use xlink:href="#ArialMT-6f" x="83.300781"/>
     <use xlink:href="#ArialMT-6e" x="138.916016"/>
     <use xlink:href="#ArialMT-74" x="194.53125"/>
     <use xlink:href="#ArialMT-72" x="222.314453"/>
     <use xlink:href="#ArialMT-65" x="255.615234"/>
     <use xlink:href="#ArialMT-61" x="311.230469"/>
     <use xlink:href="#ArialMT-6c" x="366.845703"/>
    </g>
   </g>
   <g id="text_20">
    <!-- Toronto -->
    <g style="fill: #ffffff" transform="translate(357.99347 182.870745) scale(0.11 -0.11)">
     <use xlink:href="#ArialMT-54"/>
     <use xlink:href="#ArialMT-6f" x="49.958984"/>
     <use xlink:href="#ArialMT-72" x="105.574219"/>
     <use xlink:href="#ArialMT-6f" x="138.875"/>
     <use xlink:href="#ArialMT-6e" x="194.490234"/>
     <use xlink:href="#ArialMT-74" x="250.105469"/>
     <use xlink:href="#ArialMT-6f" x="277.888672"/>
    </g>
   </g>
   <g id="text_21">
    <!-- Dublin -->
    <g style="fill: #ffffff" transform="translate(383.672537 162.489875) scale(0.11 -0.11)">
     <defs>
      <path id="ArialMT-44" d="M 494 0 
L 494 4581 
L 2072 4581 
Q 2606 4581 2888 4516 
Q 3281 4425 3559 4188 
Q 3922 3881 4101 3404 
Q 4281 2928 4281 2316 
Q 4281 1794 4159 1391 
Q 4038 988 3847 723 
Q 3656 459 3429 307 
Q 3203 156 2883 78 
Q 2563 0 2147 0 
L 494 0 
z
M 1100 541 
L 2078 541 
Q 2531 541 2789 625 
Q 3047 709 3200 863 
Q 3416 1078 3536 1442 
Q 3656 1806 3656 2325 
Q 3656 3044 3420 3430 
Q 3184 3816 2847 3947 
Q 2603 4041 2063 4041 
L 1100 4041 
L 1100 541 
z
" transform="scale(0.015625)"/>
     </defs>
     <use xlink:href="#ArialMT-44"/>
     <use xlink:href="#ArialMT-75" x="72.216797"/>
     <use xlink:href="#ArialMT-62" x="127.832031"/>
     <use xlink:href="#ArialMT-6c" x="183.447266"/>
     <use xlink:href="#ArialMT-69" x="205.664062"/>
     <use xlink:href="#ArialMT-6e" x="227.880859"/>
    </g>
   </g>
   <g id="text_22">
    <!-- Sydney -->
    <g style="fill: #ffffff" transform="translate(424.270535 178.666054) scale(0.11 -0.11)">
     <use xlink:href="#ArialMT-53"/>
     <use xlink:href="#ArialMT-79" x="66.699219"/>
     <use xlink:href="#ArialMT-64" x="116.699219"/>
     <use xlink:href="#ArialMT-6e" x="172.314453"/>
     <use xlink:href="#ArialMT-65" x="227.929688"/>
     <use xlink:href="#ArialMT-79" x="283.544922"/>
    </g>
   </g>
   <g id="text_23">
    <!-- Ehningen -->
    <g style="fill: #ffffff" transform="translate(443.096958 155.667989) scale(0.11 -0.11)">
     <use xlink:href="#ArialMT-45"/>
     <use xlink:href="#ArialMT-68" x="66.699219"/>
     <use xlink:href="#ArialMT-6e" x="122.314453"/>
     <use xlink:href="#ArialMT-69" x="177.929688"/>
     <use xlink:href="#ArialMT-6e" x="200.146484"/>
     <use xlink:href="#ArialMT-67" x="255.761719"/>
     <use xlink:href="#ArialMT-65" x="311.376953"/>
     <use xlink:href="#ArialMT-6e" x="366.992188"/>
    </g>
   </g>
   <g id="text_24">
    <!-- Mumbai -->
    <g style="fill: #ffffff" transform="translate(446.552308 196.644555) scale(0.11 -0.11)">
     <use xlink:href="#ArialMT-4d"/>
     <use xlink:href="#ArialMT-75" x="83.300781"/>
     <use xlink:href="#ArialMT-6d" x="138.916016"/>
     <use xlink:href="#ArialMT-62" x="222.216797"/>
     <use xlink:href="#ArialMT-61" x="277.832031"/>
     <use xlink:href="#ArialMT-69" x="333.447266"/>
    </g>
   </g>
   <g id="text_25">
    <!-- Kolkata -->
    <g style="fill: #ffffff" transform="translate(407.550259 213.466029) scale(0.11 -0.11)">
     <defs>
      <path id="ArialMT-4b" d="M 469 0 
L 469 4581 
L 1075 4581 
L 1075 2309 
L 3350 4581 
L 4172 4581 
L 2250 2725 
L 4256 0 
L 3456 0 
L 1825 2319 
L 1075 1588 
L 1075 0 
L 469 0 
z
" transform="scale(0.015625)"/>
     </defs>
     <use xlink:href="#ArialMT-4b"/>
     <use xlink:href="#ArialMT-6f" x="66.699219"/>
     <use xlink:href="#ArialMT-6c" x="122.314453"/>
     <use xlink:href="#ArialMT-6b" x="144.53125"/>
     <use xlink:href="#ArialMT-61" x="194.53125"/>
     <use xlink:href="#ArialMT-74" x="250.146484"/>
     <use xlink:href="#ArialMT-61" x="277.929688"/>
    </g>
   </g>
   <g id="text_26">
    <!-- Kawasaki -->
    <g style="fill: #ffffff" transform="translate(415.481613 237.947578) scale(0.11 -0.11)">
     <defs>
      <path id="ArialMT-77" d="M 1034 0 
L 19 3319 
L 600 3319 
L 1128 1403 
L 1325 691 
Q 1338 744 1497 1375 
L 2025 3319 
L 2603 3319 
L 3100 1394 
L 3266 759 
L 3456 1400 
L 4025 3319 
L 4572 3319 
L 3534 0 
L 2950 0 
L 2422 1988 
L 2294 2553 
L 1622 0 
L 1034 0 
z
" transform="scale(0.015625)"/>
     </defs>
     <use xlink:href="#ArialMT-4b"/>
     <use xlink:href="#ArialMT-61" x="66.699219"/>
     <use xlink:href="#ArialMT-77" x="122.314453"/>
     <use xlink:href="#ArialMT-61" x="194.53125"/>
     <use xlink:href="#ArialMT-73" x="250.146484"/>
     <use xlink:href="#ArialMT-61" x="300.146484"/>
     <use xlink:href="#ArialMT-6b" x="355.761719"/>
     <use xlink:href="#ArialMT-69" x="405.761719"/>
    </g>
   </g>
   <g id="text_27">
    <!-- Hanoi -->
    <g style="fill: #ffffff" transform="translate(501.352466 245.407725) scale(0.11 -0.11)">
     <defs>
      <path id="ArialMT-48" d="M 513 0 
L 513 4581 
L 1119 4581 
L 1119 2700 
L 3500 2700 
L 3500 4581 
L 4106 4581 
L 4106 0 
L 3500 0 
L 3500 2159 
L 1119 2159 
L 1119 0 
L 513 0 
z
" transform="scale(0.015625)"/>
     </defs>
     <use xlink:href="#ArialMT-48"/>
     <use xlink:href="#ArialMT-61" x="72.216797"/>
     <use xlink:href="#ArialMT-6e" x="127.832031"/>
     <use xlink:href="#ArialMT-6f" x="183.447266"/>
     <use xlink:href="#ArialMT-69" x="239.0625"/>
    </g>
   </g>
   <g id="text_28">
    <!-- Cairo -->
    <g style="fill: #ffffff" transform="translate(531.214642 199.346673) scale(0.11 -0.11)">
     <use xlink:href="#ArialMT-43"/>
     <use xlink:href="#ArialMT-61" x="72.216797"/>
     <use xlink:href="#ArialMT-69" x="127.832031"/>
     <use xlink:href="#ArialMT-72" x="150.048828"/>
     <use xlink:href="#ArialMT-6f" x="183.349609"/>
    </g>
   </g>
   <g id="text_29">
    <!-- Auckland -->
    <g style="fill: #ffffff" transform="translate(504.311513 223.646187) scale(0.11 -0.11)">
     <defs>
      <path id="ArialMT-63" d="M 2588 1216 
L 3141 1144 
Q 3050 572 2676 248 
Q 2303 -75 1759 -75 
Q 1078 -75 664 370 
Q 250 816 250 1647 
Q 250 2184 428 2587 
Q 606 2991 970 3192 
Q 1334 3394 1763 3394 
Q 2303 3394 2647 3120 
Q 2991 2847 3088 2344 
L 2541 2259 
Q 2463 2594 2264 2762 
Q 2066 2931 1784 2931 
Q 1359 2931 1093 2626 
Q 828 2322 828 1663 
Q 828 994 1084 691 
Q 1341 388 1753 388 
Q 2084 388 2306 591 
Q 2528 794 2588 1216 
z
" transform="scale(0.015625)"/>
     </defs>
     <use xlink:href="#ArialMT-41"/>
     <use xlink:href="#ArialMT-75" x="66.699219"/>
     <use xlink:href="#ArialMT-63" x="122.314453"/>
     <use xlink:href="#ArialMT-6b" x="172.314453"/>
     <use xlink:href="#ArialMT-6c" x="222.314453"/>
     <use xlink:href="#ArialMT-61" x="244.53125"/>
     <use xlink:href="#ArialMT-6e" x="300.146484"/>
     <use xlink:href="#ArialMT-64" x="355.761719"/>
    </g>
   </g>
   <g id="text_30">
    <!-- Camberra -->
    <g style="fill: #ffffff" transform="translate(437.282328 225.30714) scale(0.11 -0.11)">
     <use xlink:href="#ArialMT-43"/>
     <use xlink:href="#ArialMT-61" x="72.216797"/>
     <use xlink:href="#ArialMT-6d" x="127.832031"/>
     <use xlink:href="#ArialMT-62" x="211.132812"/>
     <use xlink:href="#ArialMT-65" x="266.748047"/>
     <use xlink:href="#ArialMT-72" x="322.363281"/>
     <use xlink:href="#ArialMT-72" x="355.664062"/>
     <use xlink:href="#ArialMT-61" x="388.964844"/>
    </g>
   </g>
   <g id="text_31">
    <!-- Peekskill -->
    <g style="fill: #ffffff" transform="translate(540.83168 244.860495) scale(0.11 -0.11)">
     <use xlink:href="#ArialMT-50"/>
     <use xlink:href="#ArialMT-65" x="66.699219"/>
     <use xlink:href="#ArialMT-65" x="122.314453"/>
     <use xlink:href="#ArialMT-6b" x="177.929688"/>
     <use xlink:href="#ArialMT-73" x="227.929688"/>
     <use xlink:href="#ArialMT-6b" x="277.929688"/>
     <use xlink:href="#ArialMT-69" x="327.929688"/>
     <use xlink:href="#ArialMT-6c" x="350.146484"/>
     <use xlink:href="#ArialMT-6c" x="372.363281"/>
    </g>
   </g>
   <g id="text_32">
    <!-- Geneva -->
    <g style="fill: #ffffff" transform="translate(600.01939 259.074465) scale(0.11 -0.11)">
     <defs>
      <path id="ArialMT-47" d="M 2638 1797 
L 2638 2334 
L 4578 2338 
L 4578 638 
Q 4131 281 3656 101 
Q 3181 -78 2681 -78 
Q 2006 -78 1454 211 
Q 903 500 622 1047 
Q 341 1594 341 2269 
Q 341 2938 620 3517 
Q 900 4097 1425 4378 
Q 1950 4659 2634 4659 
Q 3131 4659 3532 4498 
Q 3934 4338 4162 4050 
Q 4391 3763 4509 3300 
L 3963 3150 
Q 3859 3500 3706 3700 
Q 3553 3900 3268 4020 
Q 2984 4141 2638 4141 
Q 2222 4141 1919 4014 
Q 1616 3888 1430 3681 
Q 1244 3475 1141 3228 
Q 966 2803 966 2306 
Q 966 1694 1177 1281 
Q 1388 869 1791 669 
Q 2194 469 2647 469 
Q 3041 469 3416 620 
Q 3791 772 3984 944 
L 3984 1797 
L 2638 1797 
z
" transform="scale(0.015625)"/>
      <path id="ArialMT-76" d="M 1344 0 
L 81 3319 
L 675 3319 
L 1388 1331 
Q 1503 1009 1600 663 
Q 1675 925 1809 1294 
L 2547 3319 
L 3125 3319 
L 1869 0 
L 1344 0 
z
" transform="scale(0.015625)"/>
     </defs>
     <use xlink:href="#ArialMT-47"/>
     <use xlink:href="#ArialMT-65" x="77.783203"/>
     <use xlink:href="#ArialMT-6e" x="133.398438"/>
     <use xlink:href="#ArialMT-65" x="189.013672"/>
     <use xlink:href="#ArialMT-76" x="244.628906"/>
     <use xlink:href="#ArialMT-61" x="294.628906"/>
    </g>
   </g>
   <g id="text_33">
    <!-- Prague -->
    <g style="fill: #ffffff" transform="translate(602.118539 308.474721) scale(0.11 -0.11)">
     <use xlink:href="#ArialMT-50"/>
     <use xlink:href="#ArialMT-72" x="66.699219"/>
     <use xlink:href="#ArialMT-61" x="100"/>
     <use xlink:href="#ArialMT-67" x="155.615234"/>
     <use xlink:href="#ArialMT-75" x="211.230469"/>
     <use xlink:href="#ArialMT-65" x="266.845703"/>
    </g>
   </g>
   <g id="text_34">
    <!-- Rochester -->
    <g style="fill: #ffffff" transform="translate(325.112727 67.345575) scale(0.11 -0.11)">
     <defs>
      <path id="ArialMT-52" d="M 503 0 
L 503 4581 
L 2534 4581 
Q 3147 4581 3465 4457 
Q 3784 4334 3975 4021 
Q 4166 3709 4166 3331 
Q 4166 2844 3850 2509 
Q 3534 2175 2875 2084 
Q 3116 1969 3241 1856 
Q 3506 1613 3744 1247 
L 4541 0 
L 3778 0 
L 3172 953 
Q 2906 1366 2734 1584 
Q 2563 1803 2427 1890 
Q 2291 1978 2150 2013 
Q 2047 2034 1813 2034 
L 1109 2034 
L 1109 0 
L 503 0 
z
M 1109 2559 
L 2413 2559 
Q 2828 2559 3062 2645 
Q 3297 2731 3419 2920 
Q 3541 3109 3541 3331 
Q 3541 3656 3305 3865 
Q 3069 4075 2559 4075 
L 1109 4075 
L 1109 2559 
z
" transform="scale(0.015625)"/>
     </defs>
     <use xlink:href="#ArialMT-52"/>
     <use xlink:href="#ArialMT-6f" x="72.216797"/>
     <use xlink:href="#ArialMT-63" x="127.832031"/>
     <use xlink:href="#ArialMT-68" x="177.832031"/>
     <use xlink:href="#ArialMT-65" x="233.447266"/>
     <use xlink:href="#ArialMT-73" x="289.0625"/>
     <use xlink:href="#ArialMT-74" x="339.0625"/>
     <use xlink:href="#ArialMT-65" x="366.845703"/>
     <use xlink:href="#ArialMT-72" x="422.460938"/>
    </g>
   </g>
   <g id="text_35">
    <!-- Manhattan -->
    <g style="fill: #ffffff" transform="translate(403.701282 143.980928) scale(0.11 -0.11)">
     <use xlink:href="#ArialMT-4d"/>
     <use xlink:href="#ArialMT-61" x="83.300781"/>
     <use xlink:href="#ArialMT-6e" x="138.916016"/>
     <use xlink:href="#ArialMT-68" x="194.53125"/>
     <use xlink:href="#ArialMT-61" x="250.146484"/>
     <use xlink:href="#ArialMT-74" x="305.761719"/>
     <use xlink:href="#ArialMT-74" x="333.544922"/>
     <use xlink:href="#ArialMT-61" x="361.328125"/>
     <use xlink:href="#ArialMT-6e" x="416.943359"/>
    </g>
   </g>
   <g id="text_36">
    <!-- Brooklyn -->
    <g style="fill: #ffffff" transform="translate(485.932631 167.481727) scale(0.11 -0.11)">
     <use xlink:href="#ArialMT-42"/>
     <use xlink:href="#ArialMT-72" x="66.699219"/>
     <use xlink:href="#ArialMT-6f" x="100"/>
     <use xlink:href="#ArialMT-6f" x="155.615234"/>
     <use xlink:href="#ArialMT-6b" x="211.230469"/>
     <use xlink:href="#ArialMT-6c" x="261.230469"/>
     <use xlink:href="#ArialMT-79" x="283.447266"/>
     <use xlink:href="#ArialMT-6e" x="333.447266"/>
    </g>
   </g>
   <g id="text_37">
    <!-- Ithaca -->
    <g style="fill: #ffffff" transform="translate(549.098221 215.07842) scale(0.11 -0.11)">
     <defs>
      <path id="ArialMT-49" d="M 597 0 
L 597 4581 
L 1203 4581 
L 1203 0 
L 597 0 
z
" transform="scale(0.015625)"/>
     </defs>
     <use xlink:href="#ArialMT-49"/>
     <use xlink:href="#ArialMT-74" x="27.783203"/>
     <use xlink:href="#ArialMT-68" x="55.566406"/>
     <use xlink:href="#ArialMT-61" x="111.181641"/>
     <use xlink:href="#ArialMT-63" x="166.796875"/>
     <use xlink:href="#ArialMT-61" x="216.796875"/>
    </g>
   </g>
   <g id="text_38">
    <!-- Washington -->
    <g style="fill: #ffffff" transform="translate(541.736003 173.073852) scale(0.11 -0.11)">
     <defs>
      <path id="ArialMT-57" d="M 1294 0 
L 78 4581 
L 700 4581 
L 1397 1578 
Q 1509 1106 1591 641 
Q 1766 1375 1797 1488 
L 2669 4581 
L 3400 4581 
L 4056 2263 
Q 4303 1400 4413 641 
Q 4500 1075 4641 1638 
L 5359 4581 
L 5969 4581 
L 4713 0 
L 4128 0 
L 3163 3491 
Q 3041 3928 3019 4028 
Q 2947 3713 2884 3491 
L 1913 0 
L 1294 0 
z
" transform="scale(0.015625)"/>
     </defs>
     <use xlink:href="#ArialMT-57"/>
     <use xlink:href="#ArialMT-61" x="90.634766"/>
     <use xlink:href="#ArialMT-73" x="146.25"/>
     <use xlink:href="#ArialMT-68" x="196.25"/>
     <use xlink:href="#ArialMT-69" x="251.865234"/>
     <use xlink:href="#ArialMT-6e" x="274.082031"/>
     <use xlink:href="#ArialMT-67" x="329.697266"/>
     <use xlink:href="#ArialMT-74" x="385.3125"/>
     <use xlink:href="#ArialMT-6f" x="413.095703"/>
     <use xlink:href="#ArialMT-6e" x="468.710938"/>
    </g>
   </g>
   <g id="text_39">
    <!-- Kyiv -->
    <g style="fill: #ffffff" transform="translate(605.213982 213.991405) scale(0.11 -0.11)">
     <use xlink:href="#ArialMT-4b"/>
     <use xlink:href="#ArialMT-79" x="66.699219"/>
     <use xlink:href="#ArialMT-69" x="116.699219"/>
     <use xlink:href="#ArialMT-76" x="138.916016"/>
    </g>
   </g>
   <g id="text_40">
    <!-- Sherbrooke -->
    <g style="fill: #ffffff" transform="translate(597.40895 247.002743) scale(0.11 -0.11)">
     <use xlink:href="#ArialMT-53"/>
     <use xlink:href="#ArialMT-68" x="66.699219"/>
     <use xlink:href="#ArialMT-65" x="122.314453"/>
     <use xlink:href="#ArialMT-72" x="177.929688"/>
     <use xlink:href="#ArialMT-62" x="211.230469"/>
     <use xlink:href="#ArialMT-72" x="266.845703"/>
     <use xlink:href="#ArialMT-6f" x="300.146484"/>
     <use xlink:href="#ArialMT-6f" x="355.761719"/>
     <use xlink:href="#ArialMT-6b" x="411.376953"/>
     <use xlink:href="#ArialMT-65" x="461.376953"/>
    </g>
   </g>
   <g id="text_41">
    <!-- Best entangling gate error rate -->
    <g style="fill: #ffffff" transform="translate(250.69613 23.76) scale(0.18 -0.18)">
     <use xlink:href="#ArialMT-42"/>
     <use xlink:href="#ArialMT-65" x="66.699219"/>
     <use xlink:href="#ArialMT-73" x="122.314453"/>
     <use xlink:href="#ArialMT-74" x="172.314453"/>
     <use xlink:href="#ArialMT-20" x="200.097656"/>
     <use xlink:href="#ArialMT-65" x="227.880859"/>
     <use xlink:href="#ArialMT-6e" x="283.496094"/>
     <use xlink:href="#ArialMT-74" x="339.111328"/>
     <use xlink:href="#ArialMT-61" x="366.894531"/>
     <use xlink:href="#ArialMT-6e" x="422.509766"/>
     <use xlink:href="#ArialMT-67" x="478.125"/>
     <use xlink:href="#ArialMT-6c" x="533.740234"/>
     <use xlink:href="#ArialMT-69" x="555.957031"/>
     <use xlink:href="#ArialMT-6e" x="578.173828"/>
     <use xlink:href="#ArialMT-67" x="633.789062"/>
     <use xlink:href="#ArialMT-20" x="689.404297"/>
     <use xlink:href="#ArialMT-67" x="717.1875"/>
     <use xlink:href="#ArialMT-61" x="772.802734"/>
     <use xlink:href="#ArialMT-74" x="828.417969"/>
     <use xlink:href="#ArialMT-65" x="856.201172"/>
     <use xlink:href="#ArialMT-20" x="911.816406"/>
     <use xlink:href="#ArialMT-65" x="939.599609"/>
     <use xlink:href="#ArialMT-72" x="995.214844"/>
     <use xlink:href="#ArialMT-72" x="1028.515625"/>
     <use xlink:href="#ArialMT-6f" x="1061.816406"/>
     <use xlink:href="#ArialMT-72" x="1117.431641"/>
     <use xlink:href="#ArialMT-20" x="1150.732422"/>
     <use xlink:href="#ArialMT-72" x="1178.515625"/>
     <use xlink:href="#ArialMT-61" x="1211.816406"/>
     <use xlink:href="#ArialMT-74" x="1267.431641"/>
     <use xlink:href="#ArialMT-65" x="1295.214844"/>
    </g>
   </g>
   <g id="legend_1">
    <g id="patch_7">
     <path d="M 717.072159 295.7025 
L 845.496534 295.7025 
Q 847.896534 295.7025 847.896534 293.3025 
L 847.896534 38.16 
Q 847.896534 35.76 845.496534 35.76 
L 717.072159 35.76 
Q 714.672159 35.76 714.672159 38.16 
L 714.672159 293.3025 
Q 714.672159 295.7025 717.072159 295.7025 
z
" style="fill: #161616; opacity: 0.8; stroke: #cccccc; stroke-width: 0.5; stroke-linejoin: miter"/>
    </g>
    <g id="line2d_84">
     <path d="M 719.472159 44.985 
L 731.472159 44.985 
L 743.472159 44.985 
" style="fill: none"/>
     <g>
      <use xlink:href="#m8d72531f22" x="731.472159" y="44.985" style="fill: #00e5cc; stroke: #00e5cc"/>
     </g>
    </g>
    <g id="text_42">
     <!-- Penguin R1 -->
     <g style="fill: #ffffff" transform="translate(753.072159 49.185) scale(0.12 -0.12)">
      <use xlink:href="#ArialMT-50"/>
      <use xlink:href="#ArialMT-65" x="66.699219"/>
      <use xlink:href="#ArialMT-6e" x="122.314453"/>
      <use xlink:href="#ArialMT-67" x="177.929688"/>
      <use xlink:href="#ArialMT-75" x="233.544922"/>
      <use xlink:href="#ArialMT-69" x="289.160156"/>
      <use xlink:href="#ArialMT-6e" x="311.376953"/>
      <use xlink:href="#ArialMT-20" x="366.992188"/>
      <use xlink:href="#ArialMT-52" x="394.775391"/>
      <use xlink:href="#ArialMT-31" x="466.992188"/>
     </g>
    </g>
    <g id="line2d_85">
     <path d="M 719.472159 62.135625 
L 731.472159 62.135625 
L 743.472159 62.135625 
" style="fill: none"/>
     <g>
      <use xlink:href="#md9102fd8eb" x="731.472159" y="62.135625" style="fill: #925cdd; stroke: #925cdd"/>
     </g>
    </g>
    <g id="text_43">
     <!-- Penguin R2 -->
     <g style="fill: #ffffff" transform="translate(753.072159 66.335625) scale(0.12 -0.12)">
      <use xlink:href="#ArialMT-50"/>
      <use xlink:href="#ArialMT-65" x="66.699219"/>
      <use xlink:href="#ArialMT-6e" x="122.314453"/>
      <use xlink:href="#ArialMT-67" x="177.929688"/>
      <use xlink:href="#ArialMT-75" x="233.544922"/>
      <use xlink:href="#ArialMT-69" x="289.160156"/>
      <use xlink:href="#ArialMT-6e" x="311.376953"/>
      <use xlink:href="#ArialMT-20" x="366.992188"/>
      <use xlink:href="#ArialMT-52" x="394.775391"/>
      <use xlink:href="#ArialMT-32" x="466.992188"/>
     </g>
    </g>
    <g id="line2d_86">
     <path d="M 719.472159 79.28625 
L 731.472159 79.28625 
L 743.472159 79.28625 
" style="fill: none"/>
     <g>
      <use xlink:href="#mfc2fd113ca" x="731.472159" y="79.28625" style="fill: #f4a67a; stroke: #f4a67a"/>
     </g>
    </g>
    <g id="text_44">
     <!-- Penguin R3 -->
     <g style="fill: #ffffff" transform="translate(753.072159 83.48625) scale(0.12 -0.12)">
      <use xlink:href="#ArialMT-50"/>
      <use xlink:href="#ArialMT-65" x="66.699219"/>
      <use xlink:href="#ArialMT-6e" x="122.314453"/>
      <use xlink:href="#ArialMT-67" x="177.929688"/>
      <use xlink:href="#ArialMT-75" x="233.544922"/>
      <use xlink:href="#ArialMT-69" x="289.160156"/>
      <use xlink:href="#ArialMT-6e" x="311.376953"/>
      <use xlink:href="#ArialMT-20" x="366.992188"/>
      <use xlink:href="#ArialMT-52" x="394.775391"/>
      <use xlink:href="#ArialMT-33" x="466.992188"/>
     </g>
    </g>
    <g id="line2d_87">
     <path d="M 719.472159 96.40125 
L 731.472159 96.40125 
L 743.472159 96.40125 
" style="fill: none"/>
     <g>
      <use xlink:href="#m924e3163fd" x="731.472159" y="96.40125" style="fill: #0099e6; stroke: #0099e6"/>
     </g>
    </g>
    <g id="text_45">
     <!-- Penguin R4 -->
     <g style="fill: #ffffff" transform="translate(753.072159 100.60125) scale(0.12 -0.12)">
      <defs>
       <path id="ArialMT-34" d="M 2069 0 
L 2069 1097 
L 81 1097 
L 81 1613 
L 2172 4581 
L 2631 4581 
L 2631 1613 
L 3250 1613 
L 3250 1097 
L 2631 1097 
L 2631 0 
L 2069 0 
z
M 2069 1613 
L 2069 3678 
L 634 1613 
L 2069 1613 
z
" transform="scale(0.015625)"/>
      </defs>
      <use xlink:href="#ArialMT-50"/>
      <use xlink:href="#ArialMT-65" x="66.699219"/>
      <use xlink:href="#ArialMT-6e" x="122.314453"/>
      <use xlink:href="#ArialMT-67" x="177.929688"/>
      <use xlink:href="#ArialMT-75" x="233.544922"/>
      <use xlink:href="#ArialMT-69" x="289.160156"/>
      <use xlink:href="#ArialMT-6e" x="311.376953"/>
      <use xlink:href="#ArialMT-20" x="366.992188"/>
      <use xlink:href="#ArialMT-52" x="394.775391"/>
      <use xlink:href="#ArialMT-34" x="466.992188"/>
     </g>
    </g>
    <g id="line2d_88">
     <path d="M 719.472159 113.51625 
L 731.472159 113.51625 
L 743.472159 113.51625 
" style="fill: none"/>
     <g>
      <use xlink:href="#m2804dbaed4" x="731.472159" y="113.51625" style="fill: #f47aa6; stroke: #f47aa6"/>
     </g>
    </g>
    <g id="text_46">
     <!-- Falcon R1 -->
     <g style="fill: #ffffff" transform="translate(753.072159 117.71625) scale(0.12 -0.12)">
      <defs>
       <path id="ArialMT-46" d="M 525 0 
L 525 4581 
L 3616 4581 
L 3616 4041 
L 1131 4041 
L 1131 2622 
L 3281 2622 
L 3281 2081 
L 1131 2081 
L 1131 0 
L 525 0 
z
" transform="scale(0.015625)"/>
      </defs>
      <use xlink:href="#ArialMT-46"/>
      <use xlink:href="#ArialMT-61" x="61.083984"/>
      <use xlink:href="#ArialMT-6c" x="116.699219"/>
      <use xlink:href="#ArialMT-63" x="138.916016"/>
      <use xlink:href="#ArialMT-6f" x="188.916016"/>
      <use xlink:href="#ArialMT-6e" x="244.53125"/>
      <use xlink:href="#ArialMT-20" x="300.146484"/>
      <use xlink:href="#ArialMT-52" x="327.929688"/>
      <use xlink:href="#ArialMT-31" x="400.146484"/>
     </g>
    </g>
    <g id="line2d_89">
     <path d="M 719.472159 130.490625 
L 731.472159 130.490625 
L 743.472159 130.490625 
" style="fill: none"/>
     <g>
      <use xlink:href="#m9428e5f947" x="731.472159" y="130.490625" style="fill: #7ad3f4; stroke: #7ad3f4"/>
     </g>
    </g>
    <g id="text_47">
     <!-- Falcon R4 -->
     <g style="fill: #ffffff" transform="translate(753.072159 134.690625) scale(0.12 -0.12)">
      <use xlink:href="#ArialMT-46"/>
      <use xlink:href="#ArialMT-61" x="61.083984"/>
      <use xlink:href="#ArialMT-6c" x="116.699219"/>
      <use xlink:href="#ArialMT-63" x="138.916016"/>
      <use xlink:href="#ArialMT-6f" x="188.916016"/>
      <use xlink:href="#ArialMT-6e" x="244.53125"/>
      <use xlink:href="#ArialMT-20" x="300.146484"/>
      <use xlink:href="#ArialMT-52" x="327.929688"/>
      <use xlink:href="#ArialMT-34" x="400.146484"/>
     </g>
    </g>
    <g id="line2d_90">
     <path d="M 719.472159 147.465 
L 731.472159 147.465 
L 743.472159 147.465 
" style="fill: none"/>
     <g>
      <use xlink:href="#m919e69454b" x="731.472159" y="147.465" style="fill: #ef5c3b; stroke: #ef5c3b"/>
     </g>
    </g>
    <g id="text_48">
     <!-- Falcon R5 -->
     <g style="fill: #ffffff" transform="translate(753.072159 151.665) scale(0.12 -0.12)">
      <defs>
       <path id="ArialMT-35" d="M 266 1200 
L 856 1250 
Q 922 819 1161 601 
Q 1400 384 1738 384 
Q 2144 384 2425 690 
Q 2706 997 2706 1503 
Q 2706 1984 2436 2262 
Q 2166 2541 1728 2541 
Q 1456 2541 1237 2417 
Q 1019 2294 894 2097 
L 366 2166 
L 809 4519 
L 3088 4519 
L 3088 3981 
L 1259 3981 
L 1013 2750 
Q 1425 3038 1878 3038 
Q 2478 3038 2890 2622 
Q 3303 2206 3303 1553 
Q 3303 931 2941 478 
Q 2500 -78 1738 -78 
Q 1113 -78 717 272 
Q 322 622 266 1200 
z
" transform="scale(0.015625)"/>
      </defs>
      <use xlink:href="#ArialMT-46"/>
      <use xlink:href="#ArialMT-61" x="61.083984"/>
      <use xlink:href="#ArialMT-6c" x="116.699219"/>
      <use xlink:href="#ArialMT-63" x="138.916016"/>
      <use xlink:href="#ArialMT-6f" x="188.916016"/>
      <use xlink:href="#ArialMT-6e" x="244.53125"/>
      <use xlink:href="#ArialMT-20" x="300.146484"/>
      <use xlink:href="#ArialMT-52" x="327.929688"/>
      <use xlink:href="#ArialMT-35" x="400.146484"/>
     </g>
    </g>
    <g id="line2d_91">
     <path d="M 719.472159 164.439375 
L 731.472159 164.439375 
L 743.472159 164.439375 
" style="fill: none"/>
     <g>
      <use xlink:href="#ma0802c5788" x="731.472159" y="164.439375" style="fill: #00e5cc; stroke: #00e5cc; stroke-linejoin: miter"/>
     </g>
    </g>
    <g id="text_49">
     <!-- Falcon R6 -->
     <g style="fill: #ffffff" transform="translate(753.072159 168.639375) scale(0.12 -0.12)">
      <defs>
       <path id="ArialMT-36" d="M 3184 3459 
L 2625 3416 
Q 2550 3747 2413 3897 
Q 2184 4138 1850 4138 
Q 1581 4138 1378 3988 
Q 1113 3794 959 3422 
Q 806 3050 800 2363 
Q 1003 2672 1297 2822 
Q 1591 2972 1913 2972 
Q 2475 2972 2870 2558 
Q 3266 2144 3266 1488 
Q 3266 1056 3080 686 
Q 2894 316 2569 119 
Q 2244 -78 1831 -78 
Q 1128 -78 684 439 
Q 241 956 241 2144 
Q 241 3472 731 4075 
Q 1159 4600 1884 4600 
Q 2425 4600 2770 4297 
Q 3116 3994 3184 3459 
z
M 888 1484 
Q 888 1194 1011 928 
Q 1134 663 1356 523 
Q 1578 384 1822 384 
Q 2178 384 2434 671 
Q 2691 959 2691 1453 
Q 2691 1928 2437 2201 
Q 2184 2475 1800 2475 
Q 1419 2475 1153 2201 
Q 888 1928 888 1484 
z
" transform="scale(0.015625)"/>
      </defs>
      <use xlink:href="#ArialMT-46"/>
      <use xlink:href="#ArialMT-61" x="61.083984"/>
      <use xlink:href="#ArialMT-6c" x="116.699219"/>
      <use xlink:href="#ArialMT-63" x="138.916016"/>
      <use xlink:href="#ArialMT-6f" x="188.916016"/>
      <use xlink:href="#ArialMT-6e" x="244.53125"/>
      <use xlink:href="#ArialMT-20" x="300.146484"/>
      <use xlink:href="#ArialMT-52" x="327.929688"/>
      <use xlink:href="#ArialMT-36" x="400.146484"/>
     </g>
    </g>
    <g id="line2d_92">
     <path d="M 719.472159 181.41375 
L 731.472159 181.41375 
L 743.472159 181.41375 
" style="fill: none"/>
     <g>
      <use xlink:href="#m9a217bcd13" x="731.472159" y="181.41375" style="fill: #925cdd; stroke: #925cdd; stroke-linejoin: miter"/>
     </g>
    </g>
    <g id="text_50">
     <!-- Falcon R8 -->
     <g style="fill: #ffffff" transform="translate(753.072159 185.61375) scale(0.12 -0.12)">
      <use xlink:href="#ArialMT-46"/>
      <use xlink:href="#ArialMT-61" x="61.083984"/>
      <use xlink:href="#ArialMT-6c" x="116.699219"/>
      <use xlink:href="#ArialMT-63" x="138.916016"/>
      <use xlink:href="#ArialMT-6f" x="188.916016"/>
      <use xlink:href="#ArialMT-6e" x="244.53125"/>
      <use xlink:href="#ArialMT-20" x="300.146484"/>
      <use xlink:href="#ArialMT-52" x="327.929688"/>
      <use xlink:href="#ArialMT-38" x="400.146484"/>
     </g>
    </g>
    <g id="line2d_93">
     <path d="M 719.472159 198.42375 
L 731.472159 198.42375 
L 743.472159 198.42375 
" style="fill: none"/>
     <g>
      <use xlink:href="#m9df955e08c" x="731.472159" y="198.42375" style="fill: #f4a67a; stroke: #f4a67a; stroke-linejoin: miter"/>
     </g>
    </g>
    <g id="text_51">
     <!-- Egret R1 -->
     <g style="fill: #ffffff" transform="translate(753.072159 202.62375) scale(0.12 -0.12)">
      <use xlink:href="#ArialMT-45"/>
      <use xlink:href="#ArialMT-67" x="66.699219"/>
      <use xlink:href="#ArialMT-72" x="122.314453"/>
      <use xlink:href="#ArialMT-65" x="155.615234"/>
      <use xlink:href="#ArialMT-74" x="211.230469"/>
      <use xlink:href="#ArialMT-20" x="239.013672"/>
      <use xlink:href="#ArialMT-52" x="266.796875"/>
      <use xlink:href="#ArialMT-31" x="339.013672"/>
     </g>
    </g>
    <g id="line2d_94">
     <path d="M 719.472159 215.574375 
L 731.472159 215.574375 
L 743.472159 215.574375 
" style="fill: none"/>
     <g>
      <use xlink:href="#ma104a724bb" x="731.472159" y="215.574375" style="fill: #0099e6; stroke: #0099e6; stroke-linejoin: miter"/>
     </g>
    </g>
    <g id="text_52">
     <!-- Hummingbird R1 -->
     <g style="fill: #ffffff" transform="translate(753.072159 219.774375) scale(0.12 -0.12)">
      <use xlink:href="#ArialMT-48"/>
      <use xlink:href="#ArialMT-75" x="72.216797"/>
      <use xlink:href="#ArialMT-6d" x="127.832031"/>
      <use xlink:href="#ArialMT-6d" x="211.132812"/>
      <use xlink:href="#ArialMT-69" x="294.433594"/>
      <use xlink:href="#ArialMT-6e" x="316.650391"/>
      <use xlink:href="#ArialMT-67" x="372.265625"/>
      <use xlink:href="#ArialMT-62" x="427.880859"/>
      <use xlink:href="#ArialMT-69" x="483.496094"/>
      <use xlink:href="#ArialMT-72" x="505.712891"/>
      <use xlink:href="#ArialMT-64" x="539.013672"/>
      <use xlink:href="#ArialMT-20" x="594.628906"/>
      <use xlink:href="#ArialMT-52" x="622.412109"/>
      <use xlink:href="#ArialMT-31" x="694.628906"/>
     </g>
    </g>
    <g id="line2d_95">
     <path d="M 719.472159 232.725 
L 731.472159 232.725 
L 743.472159 232.725 
" style="fill: none"/>
     <g>
      <use xlink:href="#m4377443761" x="731.472159" y="232.725" style="fill: #f47aa6; stroke: #f47aa6; stroke-linejoin: miter"/>
     </g>
    </g>
    <g id="text_53">
     <!-- Hummingbird R2 -->
     <g style="fill: #ffffff" transform="translate(753.072159 236.925) scale(0.12 -0.12)">
      <use xlink:href="#ArialMT-48"/>
      <use xlink:href="#ArialMT-75" x="72.216797"/>
      <use xlink:href="#ArialMT-6d" x="127.832031"/>
      <use xlink:href="#ArialMT-6d" x="211.132812"/>
      <use xlink:href="#ArialMT-69" x="294.433594"/>
      <use xlink:href="#ArialMT-6e" x="316.650391"/>
      <use xlink:href="#ArialMT-67" x="372.265625"/>
      <use xlink:href="#ArialMT-62" x="427.880859"/>
      <use xlink:href="#ArialMT-69" x="483.496094"/>
      <use xlink:href="#ArialMT-72" x="505.712891"/>
      <use xlink:href="#ArialMT-64" x="539.013672"/>
      <use xlink:href="#ArialMT-20" x="594.628906"/>
      <use xlink:href="#ArialMT-52" x="622.412109"/>
      <use xlink:href="#ArialMT-32" x="694.628906"/>
     </g>
    </g>
    <g id="line2d_96">
     <path d="M 719.472159 249.875625 
L 731.472159 249.875625 
L 743.472159 249.875625 
" style="fill: none"/>
     <g>
      <use xlink:href="#md0e765dc7a" x="731.472159" y="249.875625" style="fill: #7ad3f4; stroke: #7ad3f4; stroke-linejoin: miter"/>
     </g>
    </g>
    <g id="text_54">
     <!-- Hummingbird R3 -->
     <g style="fill: #ffffff" transform="translate(753.072159 254.075625) scale(0.12 -0.12)">
      <use xlink:href="#ArialMT-48"/>
      <use xlink:href="#ArialMT-75" x="72.216797"/>
      <use xlink:href="#ArialMT-6d" x="127.832031"/>
      <use xlink:href="#ArialMT-6d" x="211.132812"/>
      <use xlink:href="#ArialMT-69" x="294.433594"/>
      <use xlink:href="#ArialMT-6e" x="316.650391"/>
      <use xlink:href="#ArialMT-67" x="372.265625"/>
      <use xlink:href="#ArialMT-62" x="427.880859"/>
      <use xlink:href="#ArialMT-69" x="483.496094"/>
      <use xlink:href="#ArialMT-72" x="505.712891"/>
      <use xlink:href="#ArialMT-64" x="539.013672"/>
      <use xlink:href="#ArialMT-20" x="594.628906"/>
      <use xlink:href="#ArialMT-52" x="622.412109"/>
      <use xlink:href="#ArialMT-33" x="694.628906"/>
     </g>
    </g>
    <g id="line2d_97">
     <path d="M 719.472159 267.02625 
L 731.472159 267.02625 
L 743.472159 267.02625 
" style="fill: none"/>
     <g>
      <use xlink:href="#m745c4e3dbd" x="731.472159" y="267.02625" style="fill: #ef5c3b; stroke: #ef5c3b; stroke-linejoin: miter"/>
     </g>
    </g>
    <g id="text_55">
     <!-- Eagle R1 -->
     <g style="fill: #ffffff" transform="translate(753.072159 271.22625) scale(0.12 -0.12)">
      <use xlink:href="#ArialMT-45"/>
      <use xlink:href="#ArialMT-61" x="66.699219"/>
      <use xlink:href="#ArialMT-67" x="122.314453"/>
      <use xlink:href="#ArialMT-6c" x="177.929688"/>
      <use xlink:href="#ArialMT-65" x="200.146484"/>
      <use xlink:href="#ArialMT-20" x="255.761719"/>
      <use xlink:href="#ArialMT-52" x="283.544922"/>
      <use xlink:href="#ArialMT-31" x="355.761719"/>
     </g>
    </g>
    <g id="line2d_98">
     <path d="M 719.472159 284.176875 
L 731.472159 284.176875 
L 743.472159 284.176875 
" style="fill: none"/>
     <g>
      <use xlink:href="#m305738bdeb" x="731.472159" y="284.176875" style="fill: #00e5cc; stroke: #00e5cc; stroke-linejoin: bevel"/>
     </g>
    </g>
    <g id="text_56">
     <!-- Eagle R3 -->
     <g style="fill: #ffffff" transform="translate(753.072159 288.376875) scale(0.12 -0.12)">
      <use xlink:href="#ArialMT-45"/>
      <use xlink:href="#ArialMT-61" x="66.699219"/>
      <use xlink:href="#ArialMT-67" x="122.314453"/>
      <use xlink:href="#ArialMT-6c" x="177.929688"/>
      <use xlink:href="#ArialMT-65" x="200.146484"/>
      <use xlink:href="#ArialMT-20" x="255.761719"/>
      <use xlink:href="#ArialMT-52" x="283.544922"/>
      <use xlink:href="#ArialMT-33" x="355.761719"/>
     </g>
    </g>
   </g>
  </g>
 </g>
 <defs>
  <clipPath id="pe3b07b6f2c">
   <rect x="60.768834" y="29.76" width="622.983966" height="342.746311"/>
  </clipPath>
 </defs>
</svg>
