<svg width="2948" height="583" xmlns="http://www.w3.org/2000/svg" xmlns:xlink="http://www.w3.org/1999/xlink" xml:space="preserve" overflow="hidden"><g transform="translate(-207 -67)"><path d="M1819.5 231.5 3139.5 231.5" stroke="#161616" stroke-width="6.875" stroke-linejoin="round" stroke-miterlimit="10" fill="none" fill-rule="evenodd"/><path d="M1819.5 401.5 3139.5 401.5" stroke="#161616" stroke-width="6.875" stroke-linejoin="round" stroke-miterlimit="10" fill="none" fill-rule="evenodd"/><rect x="1913" y="165" width="132" height="302" fill="#38146B"/><path d="M1831.5 577.5 3151.5 577.5" stroke="#161616" stroke-width="6.875" stroke-linejoin="round" stroke-miterlimit="10" fill="none" fill-rule="evenodd"/><rect x="2110" y="348" width="749" height="302" fill="#E6D6FF"/><rect x="2925" y="166" width="132" height="302" fill="#38146B"/><rect x="2201" y="168" width="132" height="132" fill="#8A3FFC"/><text font-family="IBM Plex Sans,IBM Plex Sans_MSFontService,sans-serif" font-weight="400" font-size="92" transform="matrix(1 0 0 1 2241.08 267)">X</text><rect x="2640" y="168" width="132" height="132" fill="#8A3FFC"/><text font-family="IBM Plex Sans,IBM Plex Sans_MSFontService,sans-serif" font-weight="400" font-size="92" transform="matrix(1 0 0 1 2678.24 267)">X</text><path d="M22.9167-3.43745 133.206-3.43719 133.206 3.43781 22.9167 3.43755ZM27.5 13.7501 0 0 27.5-13.7499ZM128.623-13.7497 156.123 0.000360892 128.623 13.7503Z" fill="#161616" transform="matrix(1 0 0 -1 2045.5 197.5)"/><path d="M22.9167-3.43745 133.206-3.43719 133.206 3.43781 22.9167 3.43755ZM27.5 13.7501 0 0 27.5-13.7499ZM128.623-13.7497 156.123 0.000360892 128.623 13.7503Z" fill="#161616" transform="matrix(1 0 0 -1 2771.5 197.5)"/><path d="M2358.42 194.063 2615.69 194.063 2615.69 200.938 2358.42 200.938ZM2363 211.25 2335.5 197.5 2363 183.75ZM2611.1 183.75 2638.6 197.501 2611.1 211.25Z" fill="#161616"/><text fill="#161616" font-family="IBM Plex Sans,IBM Plex Sans_MSFontService,sans-serif" font-weight="400" font-size="64" transform="matrix(1 0 0 1 2072.8 149)">τ</text><text fill="#161616" font-family="IBM Plex Sans,IBM Plex Sans_MSFontService,sans-serif" font-weight="400" font-size="64" transform="matrix(1 0 0 1 2103.16 149)">/4</text><text fill="#161616" font-family="IBM Plex Sans,IBM Plex Sans_MSFontService,sans-serif" font-weight="400" font-size="64" transform="matrix(1 0 0 1 2432.52 148)">τ</text><text fill="#161616" font-family="IBM Plex Sans,IBM Plex Sans_MSFontService,sans-serif" font-weight="400" font-size="64" transform="matrix(1 0 0 1 2462.89 148)">/2</text><text fill="#161616" font-family="IBM Plex Sans,IBM Plex Sans_MSFontService,sans-serif" font-weight="400" font-size="64" transform="matrix(1 0 0 1 2802.01 148)">τ</text><text fill="#161616" font-family="IBM Plex Sans,IBM Plex Sans_MSFontService,sans-serif" font-weight="400" font-size="64" transform="matrix(1 0 0 1 2832.37 148)">/4</text><path d="M207.5 231.5 1527.5 231.5" stroke="#161616" stroke-width="6.875" stroke-linejoin="round" stroke-miterlimit="10" fill="none" fill-rule="evenodd"/><path d="M207.5 401.5 1527.5 401.5" stroke="#161616" stroke-width="6.875" stroke-linejoin="round" stroke-miterlimit="10" fill="none" fill-rule="evenodd"/><rect x="301" y="165" width="132" height="302" fill="#38146B"/><path d="M220.5 577.5 1540.5 577.5" stroke="#161616" stroke-width="6.875" stroke-linejoin="round" stroke-miterlimit="10" fill="none" fill-rule="evenodd"/><rect x="498" y="348" width="749" height="302" fill="#E6D6FF"/><rect x="1314" y="166" width="132" height="302" fill="#38146B"/><text fill="#38146B" font-family="IBM Plex Sans,IBM Plex Sans_MSFontService,sans-serif" font-weight="400" font-size="64" transform="matrix(1 0 0 1 692.626 525)">Some gates</text><path d="M456.428 191.132 1290.78 193.663 1290.76 200.538 456.407 198.007ZM460.958 208.333 433.5 194.5 461.042 180.834ZM1286.23 183.337 1313.69 197.17 1286.15 210.837Z" fill="#161616"/><text fill="#161616" font-family="IBM Plex Sans,IBM Plex Sans_MSFontService,sans-serif" font-weight="400" font-size="64" transform="matrix(1 0 0 1 676.369 174)">Qubit idle time</text><text fill="#161616" font-family="IBM Plex Sans,IBM Plex Sans_MSFontService,sans-serif" font-weight="400" font-size="165" transform="matrix(1 0 0 1 1620.83 461)">=</text><text fill="#38146B" font-family="IBM Plex Sans,IBM Plex Sans_MSFontService,sans-serif" font-weight="400" font-size="64" transform="matrix(1 0 0 1 2340.08 517)">Some gates</text></g></svg>