<svg width="1163" height="487" xmlns="http://www.w3.org/2000/svg" xmlns:xlink="http://www.w3.org/1999/xlink" xml:space="preserve" overflow="hidden"><g transform="translate(-960 -423)"><path d="M1446.5 489.5 2119.32 489.5" stroke="#161616" stroke-width="6.875" stroke-linejoin="round" stroke-miterlimit="10" fill="none" fill-rule="evenodd"/><path d="M1446.5 659.5 2119.32 659.501" stroke="#161616" stroke-width="6.875" stroke-linejoin="round" stroke-miterlimit="10" fill="none" fill-rule="evenodd"/><rect x="1709" y="423" width="142" height="302" fill="#38146B"/><rect x="1529" y="423" width="132" height="132" fill="#E6D6FF"/><rect x="1900" y="423" width="132" height="132" fill="#D0B0FF"/><rect x="1899" y="593" width="132" height="132" fill="#8A3FFC"/><rect x="1529" y="593" width="132" height="132" fill="#A66EFA"/><path d="M960.5 489.5 1290.5 489.5" stroke="#161616" stroke-width="6.875" stroke-linejoin="round" stroke-miterlimit="10" fill="none" fill-rule="evenodd"/><path d="M960.5 659.5 1290.5 659.501" stroke="#161616" stroke-width="6.875" stroke-linejoin="round" stroke-miterlimit="10" fill="none" fill-rule="evenodd"/><rect x="1054" y="423" width="142" height="302" fill="#38146B"/><text fill="#161616" font-family="IBM Plex Sans,IBM Plex Sans_MSFontService,sans-serif" font-weight="400" font-size="147" transform="matrix(1 0 0 1 1326.88 612)">=</text><text fill="#161616" font-family="IBM Plex Sans,IBM Plex Sans_MSFontService,sans-serif" font-weight="400" font-size="64" transform="matrix(1 0 0 1 1638.52 855)">Pauli gates</text><path d="M1659.07 793.931 1609.27 744.135 1614.14 739.274 1663.93 789.07ZM1605.22 754.668 1595.5 725.5 1624.67 735.223Z" fill="#161616"/><path d="M2.65865-2.17898 42.2245 46.0967 36.9071 50.4546-2.65865 2.17898ZM47.2951 36.0148 54.0924 66 26.0259 53.4467Z" fill="#161616" transform="matrix(1 0 0 -1 1911.5 791.5)"/></g></svg>